StandardSymL.ufo
<glyph name="exclam" format="1">
  <advance width="333"/>
  <unicode hex="0021"/>
  <outline>
    <contour>
      <point x="173" y="186" type="line"/>
      <point x="134" y="543" type="line" smooth="yes"/>
      <point x="128" y="595"/>
      <point x="128" y="600"/>
      <point x="128" y="615" type="curve" smooth="yes"/>
      <point x="128" y="661"/>
      <point x="147" y="686"/>
      <point x="183" y="686" type="curve" smooth="yes"/>
      <point x="218" y="686"/>
      <point x="239" y="661"/>
      <point x="239" y="620" type="curve" smooth="yes"/>
      <point x="239" y="607"/>
      <point x="239" y="607"/>
      <point x="232" y="542" type="curve" smooth="yes"/>
      <point x="196" y="186" type="line"/>
    </contour>
    <contour>
      <point x="185" y="100" type="curve" smooth="yes"/>
      <point x="214" y="100"/>
      <point x="240" y="74"/>
      <point x="240" y="44" type="curve" smooth="yes"/>
      <point x="240" y="13"/>
      <point x="215" y="-13"/>
      <point x="184" y="-13" type="curve" smooth="yes"/>
      <point x="153" y="-13"/>
      <point x="128" y="13"/>
      <point x="128" y="44" type="curve" smooth="yes"/>
      <point x="128" y="75"/>
      <point x="154" y="100"/>
    </contour>
  </outline>
</glyph>
<glyph name="numbersign" format="1">
  <advance width="500"/>
  <unicode hex="0023"/>
  <outline>
    <contour>
      <point x="458" y="257" type="line"/>
      <point x="458" y="205" type="line"/>
      <point x="356" y="205" type="line"/>
      <point x="326" y="0" type="line"/>
      <point x="271" y="0" type="line"/>
      <point x="301" y="205" type="line"/>
      <point x="175" y="205" type="line"/>
      <point x="146" y="0" type="line"/>
      <point x="90" y="0" type="line"/>
      <point x="121" y="205" type="line"/>
      <point x="20" y="205" type="line"/>
      <point x="20" y="257" type="line"/>
      <point x="129" y="257" type="line"/>
      <point x="146" y="385" type="line"/>
      <point x="45" y="385" type="line"/>
      <point x="45" y="439" type="line"/>
      <point x="156" y="439" type="line"/>
      <point x="185" y="631" type="line"/>
      <point x="238" y="631" type="line"/>
      <point x="210" y="439" type="line"/>
      <point x="336" y="439" type="line"/>
      <point x="364" y="631" type="line"/>
      <point x="419" y="631" type="line"/>
      <point x="391" y="439" type="line"/>
      <point x="481" y="439" type="line"/>
      <point x="481" y="387" type="line"/>
      <point x="383" y="387" type="line"/>
      <point x="364" y="257" type="line"/>
    </contour>
    <contour>
      <point x="328" y="387" type="line"/>
      <point x="202" y="387" type="line"/>
      <point x="184" y="257" type="line"/>
      <point x="309" y="257" type="line"/>
    </contour>
  </outline>
</glyph>
<glyph name="parenleft" format="1">
  <advance width="333"/>
  <unicode hex="0028"/>
  <outline>
    <contour>
      <point x="300" y="-155" type="curve"/>
      <point x="287" y="-172" type="line"/>
      <point x="233" y="-143"/>
      <point x="209" y="-126"/>
      <point x="179" y="-93" type="curve"/>
      <point x="98" y="-9"/>
      <point x="53" y="117"/>
      <point x="53" y="254" type="curve" smooth="yes"/>
      <point x="53" y="400"/>
      <point x="105" y="535"/>
      <point x="195" y="618" type="curve" smooth="yes"/>
      <point x="221" y="642"/>
      <point x="241" y="656"/>
      <point x="287" y="680" type="curve"/>
      <point x="300" y="663" type="line"/>
      <point x="258" y="634"/>
      <point x="239" y="615"/>
      <point x="217" y="581" type="curve" smooth="yes"/>
      <point x="171" y="509"/>
      <point x="145" y="389"/>
      <point x="145" y="254" type="curve" smooth="yes"/>
      <point x="145" y="106"/>
      <point x="176" y="-19"/>
      <point x="230" y="-91" type="curve" smooth="yes"/>
      <point x="250" y="-117"/>
      <point x="266" y="-132"/>
    </contour>
  </outline>
</glyph>
<glyph name="plus" format="1">
  <advance width="549"/>
  <unicode hex="002B"/>
  <outline>
    <contour>
      <point x="302" y="533" type="line"/>
      <point x="302" y="294" type="line"/>
      <point x="539" y="294" type="line"/>
      <point x="539" y="239" type="line"/>
      <point x="302" y="239" type="line"/>
      <point x="302" y="0" type="line"/>
      <point x="247" y="0" type="line"/>
      <point x="247" y="239" type="line"/>
      <point x="10" y="239" type="line"/>
      <point x="10" y="294" type="line"/>
      <point x="247" y="294" type="line"/>
      <point x="247" y="533" type="line"/>
    </contour>
  </outline>
</glyph>
<glyph name="comma" format="1">
  <advance width="250"/>
  <unicode hex="002C"/>
  <outline>
    <contour>
      <point x="56" y="-120" type="curve"/>
      <point x="56" y="-104" type="line"/>
      <point x="105" y="-95"/>
      <point x="148" y="-50"/>
      <point x="146" y="-8" type="curve"/>
      <point x="131" y="-12"/>
      <point x="125" y="-13"/>
      <point x="116" y="-13" type="curve" smooth="yes"/>
      <point x="87" y="-13"/>
      <point x="63" y="13"/>
      <point x="63" y="45" type="curve" smooth="yes"/>
      <point x="63" y="77"/>
      <point x="87" y="102"/>
      <point x="117" y="102" type="curve" smooth="yes"/>
      <point x="160" y="102"/>
      <point x="194" y="64"/>
      <point x="194" y="15" type="curve" smooth="yes"/>
      <point x="194" y="-28"/>
      <point x="177" y="-60"/>
      <point x="138" y="-89" type="curve" smooth="yes"/>
      <point x="111" y="-109"/>
      <point x="93" y="-116"/>
    </contour>
  </outline>
</glyph>
<glyph name="zero" format="1">
  <advance width="500"/>
  <unicode hex="0030"/>
  <outline>
    <contour>
      <point x="252" y="686" type="curve" smooth="yes"/>
      <point x="383" y="686"/>
      <point x="471" y="545"/>
      <point x="471" y="336" type="curve" smooth="yes"/>
      <point x="471" y="124"/>
      <point x="383" y="-13"/>
      <point x="247" y="-13" type="curve" smooth="yes"/>
      <point x="111" y="-13"/>
      <point x="23" y="124"/>
      <point x="23" y="336" type="curve" smooth="yes"/>
      <point x="23" y="420"/>
      <point x="35" y="488"/>
      <point x="62" y="549" type="curve" smooth="yes"/>
      <point x="102" y="641"/>
      <point x="165" y="686"/>
    </contour>
    <contour>
      <point x="250" y="650" type="curve" smooth="yes"/>
      <point x="158" y="650"/>
      <point x="119" y="558"/>
      <point x="119" y="340" type="curve" smooth="yes"/>
      <point x="119" y="122"/>
      <point x="158" y="28"/>
      <point x="248" y="28" type="curve" smooth="yes"/>
      <point x="336" y="28"/>
      <point x="375" y="123"/>
      <point x="375" y="339" type="curve" smooth="yes"/>
      <point x="375" y="553"/>
      <point x="336" y="650"/>
    </contour>
  </outline>
</glyph>
<glyph name="one" format="1">
  <advance width="500"/>
  <unicode hex="0031"/>
  <outline>
    <contour>
      <point x="117" y="559" type="curve"/>
      <point x="117" y="588" type="line"/>
      <point x="201" y="629"/>
      <point x="240" y="650"/>
      <point x="277" y="673" type="curve"/>
      <point x="295" y="673" type="line"/>
      <point x="295" y="142" type="line" smooth="yes"/>
      <point x="295" y="45"/>
      <point x="306" y="32"/>
      <point x="390" y="26" type="curve"/>
      <point x="390" y="0" type="line"/>
      <point x="117" y="0" type="line"/>
      <point x="117" y="26" type="line"/>
      <point x="200" y="30"/>
      <point x="213" y="46"/>
      <point x="213" y="142" type="curve" smooth="yes"/>
      <point x="213" y="484" type="line"/>
      <point x="212" y="547"/>
      <point x="212" y="547"/>
      <point x="207" y="561" type="curve" smooth="yes"/>
      <point x="203" y="571"/>
      <point x="191" y="578"/>
      <point x="179" y="578" type="curve" smooth="yes"/>
      <point x="167" y="578"/>
      <point x="150" y="573"/>
    </contour>
  </outline>
</glyph>
<glyph name="three" format="1">
  <advance width="500"/>
  <unicode hex="0033"/>
  <outline>
    <contour>
      <point x="188" y="361" type="line"/>
      <point x="199" y="361" type="line" smooth="yes"/>
      <point x="231" y="361"/>
      <point x="275" y="382"/>
      <point x="302" y="409" type="curve" smooth="yes"/>
      <point x="329" y="436"/>
      <point x="343" y="471"/>
      <point x="343" y="507" type="curve" smooth="yes"/>
      <point x="343" y="573"/>
      <point x="298" y="620"/>
      <point x="235" y="620" type="curve" smooth="yes"/>
      <point x="182" y="620"/>
      <point x="148" y="597"/>
      <point x="111" y="536" type="curve"/>
      <point x="96" y="545" type="line"/>
      <point x="130" y="643"/>
      <point x="183" y="686"/>
      <point x="268" y="686" type="curve" smooth="yes"/>
      <point x="354" y="686"/>
      <point x="420" y="624"/>
      <point x="420" y="544" type="curve" smooth="yes"/>
      <point x="420" y="485"/>
      <point x="392" y="439"/>
      <point x="324" y="386" type="curve"/>
      <point x="401" y="346"/>
      <point x="435" y="295"/>
      <point x="435" y="220" type="curve" smooth="yes"/>
      <point x="435" y="91"/>
      <point x="323" y="-13"/>
      <point x="186" y="-13" type="curve" smooth="yes"/>
      <point x="108" y="-13"/>
      <point x="39" y="23"/>
      <point x="39" y="62" type="curve" smooth="yes"/>
      <point x="39" y="82"/>
      <point x="55" y="99"/>
      <point x="75" y="99" type="curve" smooth="yes"/>
      <point x="90" y="99"/>
      <point x="105" y="92"/>
      <point x="134" y="71" type="curve" smooth="yes"/>
      <point x="175" y="41"/>
      <point x="198" y="33"/>
      <point x="238" y="33" type="curve" smooth="yes"/>
      <point x="309" y="33"/>
      <point x="358" y="89"/>
      <point x="358" y="168" type="curve" smooth="yes"/>
      <point x="358" y="214"/>
      <point x="343" y="255"/>
      <point x="314" y="288" type="curve" smooth="yes"/>
      <point x="284" y="322"/>
      <point x="250" y="336"/>
      <point x="197" y="336" type="curve" smooth="yes"/>
      <point x="188" y="336" type="line"/>
    </contour>
  </outline>
</glyph>
<glyph name="four" format="1">
  <advance width="500"/>
  <unicode hex="0034"/>
  <outline>
    <contour>
      <point x="288" y="0" type="line"/>
      <point x="288" y="183" type="line"/>
      <point x="16" y="183" type="line"/>
      <point x="16" y="247" type="line"/>
      <point x="319" y="680" type="line"/>
      <point x="370" y="680" type="line"/>
      <point x="370" y="247" type="line"/>
      <point x="469" y="247" type="line"/>
      <point x="469" y="183" type="line"/>
      <point x="370" y="183" type="line"/>
      <point x="370" y="0" type="line"/>
    </contour>
    <contour>
      <point x="288" y="556" type="line"/>
      <point x="70" y="247" type="line"/>
      <point x="288" y="247" type="line"/>
    </contour>
  </outline>
</glyph>
<glyph name="five" format="1">
  <advance width="500"/>
  <unicode hex="0035"/>
  <outline>
    <contour>
      <point x="398" y="596" type="line"/>
      <point x="201" y="596" type="line"/>
      <point x="157" y="495" type="line"/>
      <point x="238" y="474"/>
      <point x="276" y="457"/>
      <point x="315" y="425" type="curve" smooth="yes"/>
      <point x="375" y="376"/>
      <point x="408" y="307"/>
      <point x="408" y="233" type="curve" smooth="yes"/>
      <point x="408" y="101"/>
      <point x="294" y="-13"/>
      <point x="162" y="-13" type="curve" smooth="yes"/>
      <point x="90" y="-13"/>
      <point x="29" y="23"/>
      <point x="29" y="65" type="curve" smooth="yes"/>
      <point x="29" y="85"/>
      <point x="44" y="101"/>
      <point x="63" y="101" type="curve" smooth="yes"/>
      <point x="78" y="101"/>
      <point x="83" y="99"/>
      <point x="120" y="74" type="curve" smooth="yes"/>
      <point x="149" y="55"/>
      <point x="181" y="44"/>
      <point x="211" y="44" type="curve" smooth="yes"/>
      <point x="283" y="44"/>
      <point x="342" y="111"/>
      <point x="342" y="193" type="curve" smooth="yes"/>
      <point x="342" y="267"/>
      <point x="297" y="335"/>
      <point x="220" y="376" type="curve" smooth="yes"/>
      <point x="175" y="400"/>
      <point x="137" y="410"/>
      <point x="77" y="411" type="curve"/>
      <point x="192" y="673" type="line"/>
      <point x="378" y="673" type="line" smooth="yes"/>
      <point x="402" y="673"/>
      <point x="412" y="678"/>
      <point x="428" y="699" type="curve"/>
      <point x="443" y="691" type="line"/>
    </contour>
  </outline>
</glyph>
<glyph name="six" format="1">
  <advance width="500"/>
  <unicode hex="0036"/>
  <outline>
    <contour>
      <point x="433" y="685" type="curve"/>
      <point x="433" y="667" type="line"/>
      <point x="294" y="657"/>
      <point x="178" y="543"/>
      <point x="140" y="377" type="curve"/>
      <point x="184" y="406"/>
      <point x="226" y="419"/>
      <point x="271" y="419" type="curve" smooth="yes"/>
      <point x="386" y="419"/>
      <point x="468" y="335"/>
      <point x="468" y="216" type="curve" smooth="yes"/>
      <point x="468" y="90"/>
      <point x="370" y="-13"/>
      <point x="252" y="-13" type="curve" smooth="yes"/>
      <point x="129" y="-13"/>
      <point x="36" y="106"/>
      <point x="36" y="265" type="curve" smooth="yes"/>
      <point x="36" y="418"/>
      <point x="117" y="567"/>
      <point x="239" y="639" type="curve" smooth="yes"/>
      <point x="299" y="675"/>
      <point x="344" y="685"/>
    </contour>
    <contour>
      <point x="130" y="335" type="curve"/>
      <point x="130" y="332"/>
      <point x="130" y="332"/>
      <point x="129" y="328" type="curve" smooth="yes"/>
      <point x="126" y="313"/>
      <point x="124" y="282"/>
      <point x="124" y="257" type="curve" smooth="yes"/>
      <point x="124" y="114"/>
      <point x="180" y="23"/>
      <point x="268" y="23" type="curve" smooth="yes"/>
      <point x="336" y="23"/>
      <point x="380" y="79"/>
      <point x="380" y="166" type="curve" smooth="yes"/>
      <point x="380" y="213"/>
      <point x="369" y="262"/>
      <point x="349" y="302" type="curve" smooth="yes"/>
      <point x="326" y="350"/>
      <point x="292" y="371"/>
      <point x="242" y="371" type="curve" smooth="yes"/>
      <point x="206" y="371"/>
      <point x="180" y="363"/>
    </contour>
  </outline>
</glyph>
<glyph name="seven" format="1">
  <advance width="500"/>
  <unicode hex="0037"/>
  <outline>
    <contour>
      <point x="448" y="673" type="line"/>
      <point x="207" y="-7" type="line"/>
      <point x="180" y="2"/>
      <point x="176" y="3"/>
      <point x="150" y="9" type="curve"/>
      <point x="360" y="592" type="line"/>
      <point x="205" y="592" type="line" smooth="yes"/>
      <point x="133" y="592"/>
      <point x="126" y="591"/>
      <point x="108" y="579" type="curve" smooth="yes"/>
      <point x="89" y="567"/>
      <point x="69" y="541"/>
      <point x="54" y="509" type="curve"/>
      <point x="24" y="509" type="line"/>
      <point x="86" y="673" type="line"/>
    </contour>
  </outline>
</glyph>
<glyph name="eight" format="1">
  <advance width="500"/>
  <unicode hex="0038"/>
  <outline>
    <contour>
      <point x="196" y="334" type="curve"/>
      <point x="93" y="417"/>
      <point x="62" y="461"/>
      <point x="62" y="527" type="curve" smooth="yes"/>
      <point x="62" y="617"/>
      <point x="141" y="686"/>
      <point x="245" y="686" type="curve" smooth="yes"/>
      <point x="346" y="686"/>
      <point x="426" y="617"/>
      <point x="426" y="531" type="curve" smooth="yes"/>
      <point x="426" y="471"/>
      <point x="383" y="418"/>
      <point x="292" y="367" type="curve"/>
      <point x="402" y="280"/>
      <point x="440" y="226"/>
      <point x="440" y="155" type="curve" smooth="yes"/>
      <point x="440" y="58"/>
      <point x="359" y="-13"/>
      <point x="248" y="-13" type="curve" smooth="yes"/>
      <point x="135" y="-13"/>
      <point x="54" y="53"/>
      <point x="54" y="144" type="curve" smooth="yes"/>
      <point x="54" y="215"/>
      <point x="94" y="268"/>
    </contour>
    <contour>
      <point x="224" y="314" type="curve"/>
      <point x="158" y="261"/>
      <point x="131" y="216"/>
      <point x="131" y="157" type="curve" smooth="yes"/>
      <point x="131" y="75"/>
      <point x="178" y="25"/>
      <point x="255" y="25" type="curve" smooth="yes"/>
      <point x="320" y="25"/>
      <point x="368" y="66"/>
      <point x="368" y="122" type="curve" smooth="yes"/>
      <point x="368" y="178"/>
      <point x="346" y="208"/>
    </contour>
    <contour>
      <point x="266" y="388" type="curve"/>
      <point x="334" y="436"/>
      <point x="358" y="473"/>
      <point x="358" y="530" type="curve" smooth="yes"/>
      <point x="358" y="599"/>
      <point x="310" y="650"/>
      <point x="244" y="650" type="curve" smooth="yes"/>
      <point x="184" y="650"/>
      <point x="134" y="606"/>
      <point x="134" y="553" type="curve" smooth="yes"/>
      <point x="134" y="502"/>
      <point x="171" y="456"/>
    </contour>
  </outline>
</glyph>
<glyph name="equal" format="1">
  <advance width="549"/>
  <unicode hex="003D"/>
  <outline>
    <contour>
      <point x="537" y="391" type="line"/>
      <point x="537" y="336" type="line"/>
      <point x="11" y="336" type="line"/>
      <point x="11" y="391" type="line"/>
    </contour>
    <contour>
      <point x="537" y="197" type="line"/>
      <point x="537" y="142" type="line"/>
      <point x="11" y="142" type="line"/>
      <point x="11" y="197" type="line"/>
    </contour>
  </outline>
</glyph>
<glyph name="greater" format="1">
  <advance width="549"/>
  <unicode hex="003E"/>
  <outline>
    <contour>
      <point x="26" y="522" type="line"/>
      <point x="523" y="288" type="line"/>
      <point x="523" y="233" type="line"/>
      <point x="26" y="0" type="line"/>
      <point x="26" y="62" type="line"/>
      <point x="444" y="261" type="line"/>
      <point x="26" y="460" type="line"/>
    </contour>
  </outline>
</glyph>
<glyph name="question" format="1">
  <advance width="444"/>
  <unicode hex="003F"/>
  <outline>
    <contour>
      <point x="243" y="176" type="curve"/>
      <point x="221" y="176" type="line"/>
      <point x="223" y="275"/>
      <point x="229" y="302"/>
      <point x="266" y="377" type="curve" smooth="yes"/>
      <point x="311" y="467"/>
      <point x="317" y="487"/>
      <point x="317" y="532" type="curve" smooth="yes"/>
      <point x="317" y="607"/>
      <point x="281" y="653"/>
      <point x="221" y="653" type="curve" smooth="yes"/>
      <point x="173" y="653"/>
      <point x="136" y="624"/>
      <point x="136" y="587" type="curve" smooth="yes"/>
      <point x="136" y="573"/>
      <point x="138" y="570"/>
      <point x="155" y="546" type="curve" smooth="yes"/>
      <point x="164" y="534"/>
      <point x="168" y="523"/>
      <point x="168" y="512" type="curve" smooth="yes"/>
      <point x="168" y="489"/>
      <point x="149" y="471"/>
      <point x="125" y="471" type="curve" smooth="yes"/>
      <point x="94" y="471"/>
      <point x="70" y="503"/>
      <point x="70" y="546" type="curve" smooth="yes"/>
      <point x="70" y="624"/>
      <point x="146" y="686"/>
      <point x="239" y="686" type="curve" smooth="yes"/>
      <point x="341" y="686"/>
      <point x="412" y="624"/>
      <point x="412" y="536" type="curve" smooth="yes"/>
      <point x="412" y="496"/>
      <point x="400" y="458"/>
      <point x="375" y="421" type="curve" smooth="yes"/>
      <point x="359" y="397"/>
      <point x="359" y="397"/>
      <point x="298" y="330" type="curve"/>
      <point x="260" y="283"/>
      <point x="244" y="238"/>
    </contour>
    <contour>
      <point x="240" y="99" type="curve" smooth="yes"/>
      <point x="270" y="99"/>
      <point x="295" y="73"/>
      <point x="295" y="43" type="curve" smooth="yes"/>
      <point x="295" y="12"/>
      <point x="270" y="-13"/>
      <point x="239" y="-13" type="curve" smooth="yes"/>
      <point x="208" y="-13"/>
      <point x="183" y="12"/>
      <point x="183" y="43" type="curve" smooth="yes"/>
      <point x="183" y="74"/>
      <point x="208" y="99"/>
    </contour>
  </outline>
</glyph>
<glyph name="bracketright" format="1">
  <advance width="333"/>
  <unicode hex="005D"/>
  <outline>
    <contour>
      <point x="33" y="-165" type="line"/>
      <point x="33" y="-131" type="line"/>
      <point x="130" y="-131" type="line" smooth="yes"/>
      <point x="154" y="-131"/>
      <point x="159" y="-126"/>
      <point x="159" y="-104" type="curve" smooth="yes"/>
      <point x="159" y="610" type="line" smooth="yes"/>
      <point x="159" y="634"/>
      <point x="155" y="639"/>
      <point x="132" y="639" type="curve" smooth="yes"/>
      <point x="33" y="639" type="line"/>
      <point x="33" y="673" type="line"/>
      <point x="246" y="673" type="line"/>
      <point x="246" y="-165" type="line"/>
    </contour>
  </outline>
</glyph>
<glyph name="underscore" format="1">
  <advance width="500"/>
  <unicode hex="005F"/>
  <outline>
    <contour>
      <point x="-2" y="-206" type="line"/>
      <point x="502" y="-206" type="line"/>
      <point x="502" y="-252" type="line"/>
      <point x="-2" y="-252" type="line"/>
    </contour>
  </outline>
</glyph>
<glyph name="braceleft" format="1">
  <advance width="480"/>
  <unicode hex="007B"/>
  <outline>
    <contour>
      <point x="267" y="556" type="curve" smooth="yes"/>
      <point x="267" y="384" type="line" smooth="yes"/>
      <point x="267" y="321"/>
      <point x="237" y="295"/>
      <point x="141" y="277" type="curve"/>
      <point x="187" y="269"/>
      <point x="203" y="263"/>
      <point x="225" y="250" type="curve" smooth="yes"/>
      <point x="253" y="234"/>
      <point x="267" y="204"/>
      <point x="267" y="165" type="curve" smooth="yes"/>
      <point x="267" y="-48" type="line" smooth="yes"/>
      <point x="267" y="-96"/>
      <point x="276" y="-111"/>
      <point x="314" y="-126" type="curve" smooth="yes"/>
      <point x="336" y="-135"/>
      <point x="363" y="-140"/>
      <point x="397" y="-141" type="curve"/>
      <point x="397" y="-165" type="line"/>
      <point x="298" y="-165"/>
      <point x="273" y="-162"/>
      <point x="238" y="-146" type="curve"/>
      <point x="198" y="-129"/>
      <point x="179" y="-94"/>
      <point x="179" y="-38" type="curve" smooth="yes"/>
      <point x="179" y="175" type="line" smooth="yes"/>
      <point x="179" y="214"/>
      <point x="171" y="229"/>
      <point x="144" y="243" type="curve" smooth="yes"/>
      <point x="120" y="255"/>
      <point x="104" y="259"/>
      <point x="58" y="265" type="curve"/>
      <point x="58" y="289" type="line"/>
      <point x="108" y="297"/>
      <point x="123" y="301"/>
      <point x="147" y="315" type="curve" smooth="yes"/>
      <point x="172" y="330"/>
      <point x="179" y="344"/>
      <point x="179" y="379" type="curve" smooth="yes"/>
      <point x="179" y="557" type="line" smooth="yes"/>
      <point x="179" y="605"/>
      <point x="199" y="637"/>
      <point x="240" y="655" type="curve" smooth="yes"/>
      <point x="275" y="670"/>
      <point x="299" y="673"/>
      <point x="396" y="673" type="curve"/>
      <point x="396" y="649" type="line"/>
      <point x="352" y="646"/>
      <point x="330" y="641"/>
      <point x="307" y="631" type="curve" smooth="yes"/>
      <point x="275" y="616"/>
      <point x="267" y="601"/>
    </contour>
  </outline>
</glyph>
<glyph name="logicalnot" format="1">
  <advance width="713"/>
  <unicode hex="00AC"/>
  <outline>
    <contour>
      <point x="15" y="367" type="line"/>
      <point x="680" y="367" type="line"/>
      <point x="680" y="40" type="line"/>
      <point x="621" y="40" type="line"/>
      <point x="621" y="307" type="line"/>
      <point x="15" y="307" type="line"/>
    </contour>
  </outline>
</glyph>
<glyph name="plusminus" format="1">
  <advance width="549"/>
  <unicode hex="00B1"/>
  <outline>
    <contour>
      <point x="11" y="55" type="line"/>
      <point x="535" y="55" type="line"/>
      <point x="535" y="0" type="line"/>
      <point x="11" y="0" type="line"/>
    </contour>
    <contour>
      <point x="302" y="662" type="line"/>
      <point x="302" y="423" type="line"/>
      <point x="539" y="423" type="line"/>
      <point x="539" y="368" type="line"/>
      <point x="302" y="368" type="line"/>
      <point x="302" y="129" type="line"/>
      <point x="247" y="129" type="line"/>
      <point x="247" y="368" type="line"/>
      <point x="10" y="368" type="line"/>
      <point x="10" y="423" type="line"/>
      <point x="247" y="423" type="line"/>
      <point x="247" y="662" type="line"/>
    </contour>
  </outline>
</glyph>
<glyph name="florin" format="1">
  <advance width="500"/>
  <unicode hex="0192"/>
  <outline>
    <contour>
      <point x="116" y="422" type="line"/>
      <point x="219" y="422" type="line"/>
      <point x="253" y="606"/>
      <point x="309" y="687"/>
      <point x="406" y="687" type="curve" smooth="yes"/>
      <point x="456" y="687"/>
      <point x="494" y="660"/>
      <point x="494" y="624" type="curve" smooth="yes"/>
      <point x="494" y="596"/>
      <point x="473" y="575"/>
      <point x="445" y="575" type="curve" smooth="yes"/>
      <point x="421" y="575"/>
      <point x="404" y="590"/>
      <point x="404" y="612" type="curve" smooth="yes"/>
      <point x="404" y="620"/>
      <point x="405" y="623"/>
      <point x="414" y="641" type="curve" smooth="yes"/>
      <point x="415" y="643"/>
      <point x="416" y="646"/>
      <point x="416" y="648" type="curve" smooth="yes"/>
      <point x="416" y="656"/>
      <point x="408" y="661"/>
      <point x="396" y="661" type="curve" smooth="yes"/>
      <point x="373" y="661"/>
      <point x="354" y="645"/>
      <point x="341" y="614" type="curve" smooth="yes"/>
      <point x="329" y="586"/>
      <point x="325" y="562"/>
      <point x="307" y="422" type="curve"/>
      <point x="432" y="422" type="line"/>
      <point x="422" y="390" type="line"/>
      <point x="303" y="390" type="line"/>
      <point x="276" y="156"/>
      <point x="266" y="98"/>
      <point x="239" y="3" type="curve" smooth="yes"/>
      <point x="204" y="-119"/>
      <point x="156" y="-174"/>
      <point x="84" y="-174" type="curve" smooth="yes"/>
      <point x="37" y="-174"/>
      <point x="2" y="-146"/>
      <point x="2" y="-108" type="curve" smooth="yes"/>
      <point x="2" y="-80"/>
      <point x="23" y="-59"/>
      <point x="52" y="-59" type="curve" smooth="yes"/>
      <point x="74" y="-59"/>
      <point x="90" y="-74"/>
      <point x="90" y="-94" type="curve" smooth="yes"/>
      <point x="90" y="-106"/>
      <point x="88" y="-111"/>
      <point x="78" y="-128" type="curve" smooth="yes"/>
      <point x="76" y="-131"/>
      <point x="75" y="-134"/>
      <point x="75" y="-137" type="curve" smooth="yes"/>
      <point x="75" y="-144"/>
      <point x="82" y="-148"/>
      <point x="93" y="-148" type="curve" smooth="yes"/>
      <point x="110" y="-148"/>
      <point x="128" y="-137"/>
      <point x="140" y="-119" type="curve" smooth="yes"/>
      <point x="161" y="-85"/>
      <point x="170" y="-37"/>
      <point x="183" y="112" type="curve" smooth="yes"/>
      <point x="193" y="217"/>
      <point x="202" y="302"/>
      <point x="214" y="390" type="curve"/>
      <point x="106" y="390" type="line"/>
    </contour>
  </outline>
</glyph>
<glyph name="Alpha" format="1">
  <advance width="722"/>
  <unicode hex="0391"/>
  <outline>
    <contour>
      <point x="353" y="673" type="line"/>
      <point x="582" y="142" type="line"/>
      <point x="627" y="41"/>
      <point x="629" y="39"/>
      <point x="684" y="26" type="curve"/>
      <point x="684" y="0" type="line"/>
      <point x="446" y="0" type="line"/>
      <point x="446" y="26" type="line"/>
      <point x="480" y="30"/>
      <point x="494" y="42"/>
      <point x="494" y="67" type="curve" smooth="yes"/>
      <point x="494" y="84"/>
      <point x="493" y="89"/>
      <point x="470" y="142" type="curve" smooth="yes"/>
      <point x="439" y="214" type="line"/>
      <point x="196" y="214" type="line"/>
      <point x="166" y="142" type="line" smooth="yes"/>
      <point x="148" y="99"/>
      <point x="143" y="83"/>
      <point x="143" y="67" type="curve" smooth="yes"/>
      <point x="143" y="41"/>
      <point x="160" y="28"/>
      <point x="198" y="26" type="curve"/>
      <point x="198" y="0" type="line"/>
      <point x="4" y="0" type="line"/>
      <point x="4" y="26" type="line"/>
      <point x="69" y="37"/>
      <point x="76" y="44"/>
      <point x="118" y="142" type="curve" smooth="yes"/>
      <point x="342" y="673" type="line"/>
    </contour>
    <contour>
      <point x="318" y="501" type="line"/>
      <point x="212" y="255" type="line"/>
      <point x="426" y="255" type="line"/>
    </contour>
  </outline>
</glyph>
<glyph name="Epsilon" format="1">
  <advance width="611"/>
  <unicode hex="0395"/>
  <outline>
    <contour>
      <point x="32" y="647" type="line"/>
      <point x="32" y="673" type="line"/>
      <point x="546" y="673" type="line"/>
      <point x="556" y="511" type="line"/>
      <point x="530" y="511" type="line"/>
      <point x="517" y="598"/>
      <point x="478" y="632"/>
      <point x="390" y="632" type="curve" smooth="yes"/>
      <point x="225" y="632" type="line"/>
      <point x="225" y="370" type="line"/>
      <point x="367" y="370" type="line" smooth="yes"/>
      <point x="421" y="370"/>
      <point x="445" y="378"/>
      <point x="460" y="399" type="curve" smooth="yes"/>
      <point x="469" y="412"/>
      <point x="476" y="442"/>
      <point x="476" y="465" type="curve" smooth="yes"/>
      <point x="476" y="470" type="line"/>
      <point x="501" y="470" type="line"/>
      <point x="501" y="232" type="line"/>
      <point x="476" y="232" type="line"/>
      <point x="473" y="312"/>
      <point x="453" y="329"/>
      <point x="367" y="329" type="curve" smooth="yes"/>
      <point x="225" y="329" type="line"/>
      <point x="225" y="92" type="line" smooth="yes"/>
      <point x="225" y="48"/>
      <point x="231" y="41"/>
      <point x="267" y="41" type="curve" smooth="yes"/>
      <point x="397" y="41" type="line" smooth="yes"/>
      <point x="508" y="41"/>
      <point x="549" y="69"/>
      <point x="590" y="173" type="curve"/>
      <point x="617" y="173" type="line"/>
      <point x="564" y="0" type="line"/>
      <point x="32" y="0" type="line"/>
      <point x="32" y="26" type="line"/>
      <point x="35" y="26" type="line" smooth="yes"/>
      <point x="68" y="26"/>
      <point x="95" y="38"/>
      <point x="109" y="57" type="curve"/>
      <point x="120" y="74"/>
      <point x="123" y="90"/>
      <point x="123" y="142" type="curve" smooth="yes"/>
      <point x="123" y="531" type="line" smooth="yes"/>
      <point x="123" y="583"/>
      <point x="120" y="599"/>
      <point x="109" y="616" type="curve"/>
      <point x="95" y="635"/>
      <point x="68" y="647"/>
      <point x="35" y="647" type="curve" smooth="yes"/>
    </contour>
  </outline>
</glyph>
<glyph name="Zeta" format="1">
  <advance width="611"/>
  <unicode hex="0396"/>
  <outline>
    <contour>
      <point x="618" y="673" type="line"/>
      <point x="195" y="41" type="line"/>
      <point x="425" y="41" type="line" smooth="yes"/>
      <point x="491" y="41"/>
      <point x="527" y="50"/>
      <point x="555" y="75" type="curve" smooth="yes"/>
      <point x="583" y="100"/>
      <point x="600" y="129"/>
      <point x="610" y="171" type="curve"/>
      <point x="636" y="171" type="line"/>
      <point x="599" y="0" type="line"/>
      <point x="44" y="0" type="line"/>
      <point x="465" y="630" type="line"/>
      <point x="283" y="630" type="line" smooth="yes"/>
      <point x="164" y="630"/>
      <point x="138" y="608"/>
      <point x="125" y="497" type="curve"/>
      <point x="99" y="497" type="line"/>
      <point x="116" y="673" type="line"/>
    </contour>
  </outline>
</glyph>
<glyph name="Theta" format="1">
  <advance width="741"/>
  <unicode hex="0398"/>
  <outline>
    <contour>
      <point x="505" y="457" type="line"/>
      <point x="505" y="227" type="line"/>
      <point x="481" y="227" type="line"/>
      <point x="477" y="289"/>
      <point x="461" y="303"/>
      <point x="396" y="303" type="curve" smooth="yes"/>
      <point x="363" y="303" type="line" smooth="yes"/>
      <point x="297" y="303"/>
      <point x="281" y="289"/>
      <point x="276" y="227" type="curve"/>
      <point x="252" y="227" type="line"/>
      <point x="252" y="457" type="line"/>
      <point x="276" y="457" type="line"/>
      <point x="280" y="398"/>
      <point x="298" y="382"/>
      <point x="360" y="382" type="curve" smooth="yes"/>
      <point x="394" y="382" type="line" smooth="yes"/>
      <point x="459" y="382"/>
      <point x="476" y="396"/>
      <point x="481" y="457" type="curve"/>
    </contour>
    <contour>
      <point x="382" y="686" type="curve" smooth="yes"/>
      <point x="573" y="686"/>
      <point x="715" y="537"/>
      <point x="715" y="336" type="curve" smooth="yes"/>
      <point x="715" y="134"/>
      <point x="573" y="-13"/>
      <point x="378" y="-13" type="curve" smooth="yes"/>
      <point x="183" y="-13"/>
      <point x="41" y="134"/>
      <point x="41" y="336" type="curve" smooth="yes"/>
      <point x="41" y="541"/>
      <point x="182" y="686"/>
    </contour>
    <contour>
      <point x="372" y="647" type="curve" smooth="yes"/>
      <point x="238" y="647"/>
      <point x="159" y="533"/>
      <point x="159" y="340" type="curve" smooth="yes"/>
      <point x="159" y="151"/>
      <point x="248" y="26"/>
      <point x="383" y="26" type="curve" smooth="yes"/>
      <point x="432" y="26"/>
      <point x="480" y="43"/>
      <point x="511" y="72" type="curve" smooth="yes"/>
      <point x="566" y="122"/>
      <point x="597" y="215"/>
      <point x="597" y="328" type="curve" smooth="yes"/>
      <point x="597" y="450"/>
      <point x="562" y="547"/>
      <point x="498" y="600" type="curve" smooth="yes"/>
      <point x="463" y="630"/>
      <point x="417" y="647"/>
    </contour>
  </outline>
</glyph>
<glyph name="Lambda" format="1">
  <advance width="686"/>
  <unicode hex="039B"/>
  <outline>
    <contour>
      <point x="314" y="501" type="line"/>
      <point x="162" y="142" type="line" smooth="yes"/>
      <point x="144" y="99"/>
      <point x="139" y="83"/>
      <point x="139" y="67" type="curve" smooth="yes"/>
      <point x="139" y="41"/>
      <point x="156" y="28"/>
      <point x="194" y="26" type="curve"/>
      <point x="194" y="0" type="line"/>
      <point x="6" y="0" type="line"/>
      <point x="6" y="26" type="line"/>
      <point x="66" y="39"/>
      <point x="73" y="47"/>
      <point x="114" y="142" type="curve"/>
      <point x="343" y="688" type="line"/>
      <point x="578" y="142" type="line"/>
      <point x="623" y="41"/>
      <point x="625" y="39"/>
      <point x="680" y="26" type="curve"/>
      <point x="680" y="0" type="line"/>
      <point x="442" y="0" type="line"/>
      <point x="442" y="26" type="line"/>
      <point x="476" y="30"/>
      <point x="490" y="42"/>
      <point x="490" y="67" type="curve" smooth="yes"/>
      <point x="490" y="84"/>
      <point x="489" y="89"/>
      <point x="466" y="142" type="curve" smooth="yes"/>
    </contour>
  </outline>
</glyph>
<glyph name="Mu" format="1">
  <advance width="889"/>
  <unicode hex="039C"/>
  <outline>
    <contour>
      <point x="424" y="1" type="line"/>
      <point x="163" y="541" type="line"/>
      <point x="163" y="142" type="line" smooth="yes"/>
      <point x="163" y="90"/>
      <point x="166" y="74"/>
      <point x="177" y="57" type="curve"/>
      <point x="191" y="38"/>
      <point x="218" y="26"/>
      <point x="251" y="26" type="curve" smooth="yes"/>
      <point x="254" y="26" type="line"/>
      <point x="254" y="0" type="line"/>
      <point x="28" y="0" type="line"/>
      <point x="28" y="26" type="line"/>
      <point x="31" y="26" type="line" smooth="yes"/>
      <point x="64" y="26"/>
      <point x="91" y="38"/>
      <point x="105" y="57" type="curve"/>
      <point x="116" y="74"/>
      <point x="119" y="90"/>
      <point x="119" y="142" type="curve" smooth="yes"/>
      <point x="119" y="531" type="line" smooth="yes"/>
      <point x="119" y="583"/>
      <point x="116" y="598"/>
      <point x="105" y="616" type="curve"/>
      <point x="91" y="635"/>
      <point x="65" y="647"/>
      <point x="31" y="647" type="curve" smooth="yes"/>
      <point x="28" y="647" type="line"/>
      <point x="28" y="673" type="line"/>
      <point x="215" y="673" type="line"/>
      <point x="460" y="170" type="line"/>
      <point x="713" y="673" type="line"/>
      <point x="887" y="673" type="line"/>
      <point x="887" y="647" type="line"/>
      <point x="884" y="647" type="line" smooth="yes"/>
      <point x="852" y="647"/>
      <point x="824" y="635"/>
      <point x="810" y="616" type="curve"/>
      <point x="799" y="599"/>
      <point x="796" y="583"/>
      <point x="796" y="531" type="curve" smooth="yes"/>
      <point x="796" y="142" type="line" smooth="yes"/>
      <point x="796" y="90"/>
      <point x="799" y="74"/>
      <point x="810" y="57" type="curve"/>
      <point x="824" y="38"/>
      <point x="851" y="26"/>
      <point x="884" y="26" type="curve" smooth="yes"/>
      <point x="887" y="26" type="line"/>
      <point x="887" y="0" type="line"/>
      <point x="603" y="0" type="line"/>
      <point x="603" y="26" type="line"/>
      <point x="606" y="26" type="line" smooth="yes"/>
      <point x="639" y="26"/>
      <point x="666" y="38"/>
      <point x="680" y="57" type="curve"/>
      <point x="691" y="74"/>
      <point x="694" y="90"/>
      <point x="694" y="142" type="curve" smooth="yes"/>
      <point x="694" y="541" type="line"/>
    </contour>
  </outline>
</glyph>
<glyph name="Xi" format="1">
  <advance width="645"/>
  <unicode hex="039E"/>
  <outline>
    <contour>
      <point x="560" y="673" type="line"/>
      <point x="570" y="505" type="line"/>
      <point x="544" y="505" type="line"/>
      <point x="531" y="576"/>
      <point x="515" y="589"/>
      <point x="432" y="589" type="curve" smooth="yes"/>
      <point x="207" y="589" type="line" smooth="yes"/>
      <point x="122" y="589"/>
      <point x="106" y="577"/>
      <point x="94" y="505" type="curve"/>
      <point x="68" y="505" type="line"/>
      <point x="78" y="673" type="line"/>
    </contour>
    <contour>
      <point x="571" y="180" type="curve"/>
      <point x="599" y="180" type="line"/>
      <point x="560" y="0" type="line"/>
      <point x="78" y="0" type="line"/>
      <point x="40" y="180" type="line"/>
      <point x="66" y="180" type="line"/>
      <point x="91" y="98"/>
      <point x="114" y="84"/>
      <point x="226" y="84" type="curve" smooth="yes"/>
      <point x="398" y="84" type="line" smooth="yes"/>
      <point x="522" y="84"/>
      <point x="546" y="98"/>
    </contour>
    <contour>
      <point x="446" y="457" type="line"/>
      <point x="446" y="227" type="line"/>
      <point x="422" y="227" type="line"/>
      <point x="418" y="289"/>
      <point x="402" y="303"/>
      <point x="337" y="303" type="curve" smooth="yes"/>
      <point x="304" y="303" type="line" smooth="yes"/>
      <point x="238" y="303"/>
      <point x="222" y="289"/>
      <point x="217" y="227" type="curve"/>
      <point x="193" y="227" type="line"/>
      <point x="193" y="457" type="line"/>
      <point x="217" y="457" type="line"/>
      <point x="221" y="398"/>
      <point x="239" y="382"/>
      <point x="301" y="382" type="curve" smooth="yes"/>
      <point x="335" y="382" type="line" smooth="yes"/>
      <point x="400" y="382"/>
      <point x="417" y="396"/>
      <point x="422" y="457" type="curve"/>
    </contour>
  </outline>
</glyph>
<glyph name="Omicron" format="1">
  <advance width="722"/>
  <unicode hex="039F"/>
  <outline>
    <contour>
      <point x="382" y="686" type="curve" smooth="yes"/>
      <point x="573" y="686"/>
      <point x="715" y="537"/>
      <point x="715" y="336" type="curve" smooth="yes"/>
      <point x="715" y="134"/>
      <point x="573" y="-13"/>
      <point x="378" y="-13" type="curve" smooth="yes"/>
      <point x="183" y="-13"/>
      <point x="41" y="134"/>
      <point x="41" y="336" type="curve" smooth="yes"/>
      <point x="41" y="541"/>
      <point x="182" y="686"/>
    </contour>
    <contour>
      <point x="372" y="647" type="curve" smooth="yes"/>
      <point x="238" y="647"/>
      <point x="159" y="533"/>
      <point x="159" y="340" type="curve" smooth="yes"/>
      <point x="159" y="151"/>
      <point x="248" y="26"/>
      <point x="383" y="26" type="curve" smooth="yes"/>
      <point x="432" y="26"/>
      <point x="480" y="43"/>
      <point x="511" y="72" type="curve" smooth="yes"/>
      <point x="566" y="122"/>
      <point x="597" y="215"/>
      <point x="597" y="328" type="curve" smooth="yes"/>
      <point x="597" y="450"/>
      <point x="562" y="547"/>
      <point x="498" y="600" type="curve" smooth="yes"/>
      <point x="463" y="630"/>
      <point x="417" y="647"/>
    </contour>
  </outline>
</glyph>
<glyph name="Sigma" format="1">
  <advance width="592"/>
  <unicode hex="03A3"/>
  <outline>
    <contour>
      <point x="167" y="632" type="line"/>
      <point x="329" y="369" type="line"/>
      <point x="118" y="83" type="line"/>
      <point x="385" y="83" type="line" smooth="yes"/>
      <point x="501" y="83"/>
      <point x="531" y="100"/>
      <point x="563" y="180" type="curve"/>
      <point x="589" y="180" type="line"/>
      <point x="535" y="0" type="line"/>
      <point x="5" y="0" type="line"/>
      <point x="240" y="320" type="line"/>
      <point x="22" y="673" type="line"/>
      <point x="516" y="673" type="line"/>
      <point x="526" y="510" type="line"/>
      <point x="500" y="510" type="line"/>
      <point x="483" y="609"/>
      <point x="452" y="632"/>
      <point x="336" y="632" type="curve" smooth="yes"/>
    </contour>
  </outline>
</glyph>
<glyph name="Tau" format="1">
  <advance width="611"/>
  <unicode hex="03A4"/>
  <outline>
    <contour>
      <point x="269" y="628" type="line"/>
      <point x="204" y="628" type="line" smooth="yes"/>
      <point x="102" y="628"/>
      <point x="66" y="600"/>
      <point x="59" y="515" type="curve"/>
      <point x="33" y="515" type="line"/>
      <point x="44" y="673" type="line"/>
      <point x="596" y="673" type="line"/>
      <point x="607" y="515" type="line"/>
      <point x="582" y="515" type="line"/>
      <point x="573" y="602"/>
      <point x="542" y="628"/>
      <point x="445" y="628" type="curve" smooth="yes"/>
      <point x="371" y="628" type="line"/>
      <point x="371" y="142" type="line" smooth="yes"/>
      <point x="371" y="89"/>
      <point x="374" y="75"/>
      <point x="385" y="57" type="curve"/>
      <point x="399" y="38"/>
      <point x="426" y="26"/>
      <point x="459" y="26" type="curve" smooth="yes"/>
      <point x="479" y="26" type="line"/>
      <point x="479" y="0" type="line"/>
      <point x="161" y="0" type="line"/>
      <point x="161" y="26" type="line"/>
      <point x="181" y="26" type="line" smooth="yes"/>
      <point x="214" y="26"/>
      <point x="241" y="38"/>
      <point x="255" y="57" type="curve"/>
      <point x="266" y="74"/>
      <point x="269" y="90"/>
      <point x="269" y="142" type="curve" smooth="yes"/>
    </contour>
  </outline>
</glyph>
<glyph name="Upsilon" format="1">
  <advance width="690"/>
  <unicode hex="03A5"/>
  <outline>
    <contour>
      <point x="396" y="291" type="line"/>
      <point x="396" y="142" type="line" smooth="yes"/>
      <point x="396" y="90"/>
      <point x="399" y="74"/>
      <point x="410" y="57" type="curve"/>
      <point x="424" y="38"/>
      <point x="451" y="26"/>
      <point x="484" y="26" type="curve" smooth="yes"/>
      <point x="487" y="26" type="line"/>
      <point x="487" y="0" type="line"/>
      <point x="203" y="0" type="line"/>
      <point x="203" y="26" type="line"/>
      <point x="206" y="26" type="line" smooth="yes"/>
      <point x="239" y="26"/>
      <point x="266" y="38"/>
      <point x="280" y="57" type="curve"/>
      <point x="291" y="74"/>
      <point x="294" y="90"/>
      <point x="294" y="142" type="curve" smooth="yes"/>
      <point x="294" y="291" type="line"/>
      <point x="148" y="532" type="line"/>
      <point x="97" y="619"/>
      <point x="71" y="638"/>
      <point x="-8" y="647" type="curve"/>
      <point x="-8" y="673" type="line"/>
      <point x="301" y="673" type="line"/>
      <point x="301" y="647" type="line"/>
      <point x="282" y="647" type="line" smooth="yes"/>
      <point x="247" y="647"/>
      <point x="228" y="636"/>
      <point x="228" y="614" type="curve" smooth="yes"/>
      <point x="228" y="599"/>
      <point x="238" y="576"/>
      <point x="266" y="532" type="curve" smooth="yes"/>
      <point x="380" y="347" type="line"/>
      <point x="497" y="532" type="line" smooth="yes"/>
      <point x="518" y="564"/>
      <point x="531" y="596"/>
      <point x="531" y="613" type="curve" smooth="yes"/>
      <point x="531" y="637"/>
      <point x="516" y="647"/>
      <point x="476" y="647" type="curve" smooth="yes"/>
      <point x="465" y="647" type="line"/>
      <point x="465" y="673" type="line"/>
      <point x="694" y="673" type="line"/>
      <point x="694" y="647" type="line"/>
      <point x="619" y="638"/>
      <point x="592" y="617"/>
      <point x="542" y="532" type="curve"/>
    </contour>
  </outline>
</glyph>
<glyph name="Phi" format="1">
  <advance width="763"/>
  <unicode hex="03A6"/>
  <outline>
    <contour>
      <point x="238" y="0" type="line"/>
      <point x="238" y="26" type="line"/>
      <point x="311" y="27"/>
      <point x="337" y="55"/>
      <point x="335" y="129" type="curve"/>
      <point x="277" y="129"/>
      <point x="253" y="132"/>
      <point x="215" y="140" type="curve" smooth="yes"/>
      <point x="99" y="167"/>
      <point x="26" y="242"/>
      <point x="26" y="336" type="curve" smooth="yes"/>
      <point x="26" y="435"/>
      <point x="101" y="512"/>
      <point x="221" y="538" type="curve" smooth="yes"/>
      <point x="256" y="545"/>
      <point x="288" y="548"/>
      <point x="335" y="549" type="curve"/>
      <point x="336" y="619"/>
      <point x="309" y="646"/>
      <point x="238" y="647" type="curve"/>
      <point x="238" y="673" type="line"/>
      <point x="529" y="673" type="line"/>
      <point x="529" y="647" type="line"/>
      <point x="459" y="646"/>
      <point x="432" y="618"/>
      <point x="433" y="549" type="curve"/>
      <point x="479" y="548"/>
      <point x="511" y="545"/>
      <point x="546" y="538" type="curve" smooth="yes"/>
      <point x="666" y="512"/>
      <point x="741" y="435"/>
      <point x="741" y="336" type="curve" smooth="yes"/>
      <point x="741" y="242"/>
      <point x="668" y="167"/>
      <point x="552" y="140" type="curve" smooth="yes"/>
      <point x="514" y="132"/>
      <point x="490" y="129"/>
      <point x="433" y="129" type="curve"/>
      <point x="431" y="55"/>
      <point x="457" y="27"/>
      <point x="529" y="26" type="curve"/>
      <point x="529" y="0" type="line"/>
    </contour>
    <contour>
      <point x="335" y="167" type="curve"/>
      <point x="335" y="512" type="line"/>
      <point x="273" y="507"/>
      <point x="240" y="497"/>
      <point x="205" y="476" type="curve"/>
      <point x="157" y="445"/>
      <point x="134" y="403"/>
      <point x="134" y="343" type="curve" smooth="yes"/>
      <point x="134" y="233"/>
      <point x="200" y="175"/>
    </contour>
    <contour>
      <point x="433" y="512" type="curve"/>
      <point x="433" y="167" type="line"/>
      <point x="494" y="173"/>
      <point x="527" y="182"/>
      <point x="562" y="203" type="curve"/>
      <point x="610" y="234"/>
      <point x="633" y="276"/>
      <point x="633" y="336" type="curve" smooth="yes"/>
      <point x="633" y="446"/>
      <point x="567" y="504"/>
    </contour>
  </outline>
</glyph>
<glyph name="Chi" format="1">
  <advance width="722"/>
  <unicode hex="03A7"/>
  <outline>
    <contour>
      <point x="385" y="0" type="line"/>
      <point x="385" y="26" type="line"/>
      <point x="401" y="26" type="line" smooth="yes"/>
      <point x="438" y="26"/>
      <point x="458" y="38"/>
      <point x="458" y="60" type="curve" smooth="yes"/>
      <point x="458" y="74"/>
      <point x="443" y="105"/>
      <point x="419" y="141" type="curve" smooth="yes"/>
      <point x="328" y="279" type="line"/>
      <point x="227" y="141" type="line" smooth="yes"/>
      <point x="176" y="72"/>
      <point x="176" y="72"/>
      <point x="176" y="57" type="curve" smooth="yes"/>
      <point x="176" y="36"/>
      <point x="191" y="26"/>
      <point x="225" y="26" type="curve" smooth="yes"/>
      <point x="239" y="26" type="line"/>
      <point x="239" y="0" type="line"/>
      <point x="-9" y="0" type="line"/>
      <point x="-9" y="26" type="line"/>
      <point x="70" y="32"/>
      <point x="103" y="54"/>
      <point x="168" y="141" type="curve"/>
      <point x="308" y="321" type="line"/>
      <point x="172" y="531" type="line"/>
      <point x="117" y="621"/>
      <point x="86" y="642"/>
      <point x="4" y="647" type="curve"/>
      <point x="4" y="673" type="line"/>
      <point x="329" y="673" type="line"/>
      <point x="329" y="647" type="line"/>
      <point x="308" y="647" type="line" smooth="yes"/>
      <point x="275" y="647"/>
      <point x="256" y="634"/>
      <point x="256" y="611" type="curve" smooth="yes"/>
      <point x="256" y="597"/>
      <point x="265" y="579"/>
      <point x="295" y="531" type="curve" smooth="yes"/>
      <point x="373" y="408" type="line"/>
      <point x="467" y="532" type="line" smooth="yes"/>
      <point x="505" y="582"/>
      <point x="517" y="601"/>
      <point x="517" y="615" type="curve" smooth="yes"/>
      <point x="517" y="637"/>
      <point x="502" y="647"/>
      <point x="467" y="647" type="curve" smooth="yes"/>
      <point x="453" y="647" type="line"/>
      <point x="453" y="673" type="line"/>
      <point x="704" y="673" type="line"/>
      <point x="704" y="647" type="line"/>
      <point x="621" y="643"/>
      <point x="584" y="620"/>
      <point x="519" y="531" type="curve"/>
      <point x="399" y="370" type="line"/>
      <point x="541" y="141" type="line"/>
      <point x="594" y="52"/>
      <point x="625" y="31"/>
      <point x="704" y="26" type="curve"/>
      <point x="704" y="0" type="line"/>
    </contour>
  </outline>
</glyph>
<glyph name="beta" format="1">
  <advance width="549"/>
  <unicode hex="03B2"/>
  <outline>
    <contour>
      <point x="79" y="-62" type="curve" smooth="yes"/>
      <point x="79" y="574" type="line" smooth="yes"/>
      <point x="79" y="669"/>
      <point x="160" y="740"/>
      <point x="268" y="740" type="curve" smooth="yes"/>
      <point x="375" y="740"/>
      <point x="464" y="666"/>
      <point x="464" y="577" type="curve" smooth="yes"/>
      <point x="464" y="520"/>
      <point x="428" y="474"/>
      <point x="352" y="433" type="curve"/>
      <point x="462" y="386"/>
      <point x="515" y="311"/>
      <point x="515" y="204" type="curve" smooth="yes"/>
      <point x="515" y="75"/>
      <point x="433" y="-13"/>
      <point x="314" y="-13" type="curve" smooth="yes"/>
      <point x="256" y="-13"/>
      <point x="212" y="2"/>
      <point x="159" y="42" type="curve"/>
      <point x="159" y="-94" type="line" smooth="yes"/>
      <point x="159" y="-172"/>
      <point x="156" y="-199"/>
      <point x="143" y="-222" type="curve"/>
      <point x="61" y="-222" type="line"/>
      <point x="71" y="-184"/>
      <point x="79" y="-115"/>
    </contour>
    <contour>
      <point x="159" y="584" type="curve" smooth="yes"/>
      <point x="159" y="99" type="line"/>
      <point x="193" y="60"/>
      <point x="243" y="37"/>
      <point x="293" y="37" type="curve" smooth="yes"/>
      <point x="367" y="37"/>
      <point x="411" y="96"/>
      <point x="411" y="196" type="curve" smooth="yes"/>
      <point x="411" y="278"/>
      <point x="384" y="354"/>
      <point x="339" y="396" type="curve" smooth="yes"/>
      <point x="333" y="402"/>
      <point x="326" y="404"/>
      <point x="313" y="404" type="curve" smooth="yes"/>
      <point x="305" y="404"/>
      <point x="295" y="403"/>
      <point x="283" y="400" type="curve" smooth="yes"/>
      <point x="273" y="398"/>
      <point x="268" y="397"/>
      <point x="262" y="397" type="curve" smooth="yes"/>
      <point x="236" y="397"/>
      <point x="218" y="409"/>
      <point x="218" y="428" type="curve" smooth="yes"/>
      <point x="218" y="447"/>
      <point x="237" y="463"/>
      <point x="261" y="463" type="curve" smooth="yes"/>
      <point x="269" y="463"/>
      <point x="277" y="462"/>
      <point x="292" y="459" type="curve" smooth="yes"/>
      <point x="308" y="455"/>
      <point x="311" y="455"/>
      <point x="314" y="455" type="curve" smooth="yes"/>
      <point x="340" y="455"/>
      <point x="368" y="512"/>
      <point x="368" y="565" type="curve" smooth="yes"/>
      <point x="368" y="645"/>
      <point x="323" y="703"/>
      <point x="260" y="703" type="curve" smooth="yes"/>
      <point x="201" y="703"/>
      <point x="159" y="654"/>
    </contour>
  </outline>
</glyph>
<glyph name="eta" format="1">
  <advance width="603"/>
  <unicode hex="03B7"/>
  <outline>
    <contour>
      <point x="119" y="0" type="line"/>
      <point x="120" y="356" type="line" smooth="yes"/>
      <point x="120" y="410"/>
      <point x="98" y="449"/>
      <point x="68" y="449" type="curve" smooth="yes"/>
      <point x="44" y="449"/>
      <point x="30" y="420"/>
      <point x="24" y="358" type="curve"/>
      <point x="0" y="358" type="line"/>
      <point x="0" y="395"/>
      <point x="4" y="416"/>
      <point x="15" y="440" type="curve" smooth="yes"/>
      <point x="34" y="480"/>
      <point x="72" y="505"/>
      <point x="112" y="505" type="curve" smooth="yes"/>
      <point x="142" y="505"/>
      <point x="171" y="491"/>
      <point x="188" y="468" type="curve"/>
      <point x="197" y="454"/>
      <point x="202" y="441"/>
      <point x="207" y="411" type="curve"/>
      <point x="261" y="486"/>
      <point x="303" y="513"/>
      <point x="362" y="513" type="curve" smooth="yes"/>
      <point x="445" y="513"/>
      <point x="505" y="452"/>
      <point x="505" y="369" type="curve" smooth="yes"/>
      <point x="505" y="-122" type="line" smooth="yes"/>
      <point x="505" y="-147"/>
      <point x="511" y="-173"/>
      <point x="527" y="-222" type="curve"/>
      <point x="434" y="-222" type="line"/>
      <point x="420" y="-171"/>
      <point x="414" y="-133"/>
      <point x="414" y="-99" type="curve" smooth="yes"/>
      <point x="414" y="340" type="line" smooth="yes"/>
      <point x="414" y="404"/>
      <point x="379" y="443"/>
      <point x="322" y="443" type="curve" smooth="yes"/>
      <point x="278" y="443"/>
      <point x="243" y="418"/>
      <point x="207" y="364" type="curve"/>
      <point x="207" y="0" type="line"/>
    </contour>
  </outline>
</glyph>
<glyph name="iota" format="1">
  <advance width="329"/>
  <unicode hex="03B9"/>
  <outline>
    <contour>
      <point x="175" y="513" type="curve"/>
      <point x="175" y="131" type="line"/>
      <point x="174" y="70"/>
      <point x="191" y="39"/>
      <point x="224" y="39" type="curve" smooth="yes"/>
      <point x="249" y="39"/>
      <point x="263" y="59"/>
      <point x="273" y="108" type="curve"/>
      <point x="301" y="107" type="line"/>
      <point x="293" y="74"/>
      <point x="287" y="56"/>
      <point x="275" y="38" type="curve" smooth="yes"/>
      <point x="253" y="7"/>
      <point x="217" y="-13"/>
      <point x="179" y="-13" type="curve" smooth="yes"/>
      <point x="151" y="-13"/>
      <point x="124" y="-1"/>
      <point x="108" y="21" type="curve" smooth="yes"/>
      <point x="93" y="41"/>
      <point x="88" y="63"/>
      <point x="88" y="116" type="curve" smooth="yes"/>
      <point x="88" y="357" type="line" smooth="yes"/>
      <point x="88" y="422"/>
      <point x="78" y="438"/>
      <point x="39" y="438" type="curve" smooth="yes"/>
      <point x="31" y="438"/>
      <point x="19" y="437"/>
      <point x="0" y="435" type="curve"/>
      <point x="0" y="460" type="line"/>
      <point x="56" y="471"/>
      <point x="134" y="495"/>
    </contour>
  </outline>
</glyph>
<glyph name="lambda" format="1">
  <advance width="549"/>
  <unicode hex="03BB"/>
  <outline>
    <contour>
      <point x="75" y="570" type="curve"/>
      <point x="51" y="570" type="line"/>
      <point x="62" y="688"/>
      <point x="94" y="740"/>
      <point x="155" y="740" type="curve" smooth="yes"/>
      <point x="188" y="740"/>
      <point x="218" y="723"/>
      <point x="240" y="691" type="curve" smooth="yes"/>
      <point x="264" y="655"/>
      <point x="300" y="533"/>
      <point x="323" y="404" type="curve" smooth="yes"/>
      <point x="325" y="394"/>
      <point x="326" y="387"/>
      <point x="327" y="384" type="curve" smooth="yes"/>
      <point x="354" y="255" type="line"/>
      <point x="368" y="181"/>
      <point x="375" y="155"/>
      <point x="388" y="129" type="curve"/>
      <point x="404" y="94"/>
      <point x="430" y="75"/>
      <point x="460" y="75" type="curve" smooth="yes"/>
      <point x="496" y="75"/>
      <point x="519" y="104"/>
      <point x="527" y="156" type="curve"/>
      <point x="548" y="156" type="line"/>
      <point x="547" y="109"/>
      <point x="543" y="82"/>
      <point x="532" y="55" type="curve" smooth="yes"/>
      <point x="515" y="11"/>
      <point x="484" y="-13"/>
      <point x="445" y="-13" type="curve" smooth="yes"/>
      <point x="408" y="-13"/>
      <point x="376" y="10"/>
      <point x="354" y="53" type="curve"/>
      <point x="336" y="92"/>
      <point x="320" y="163"/>
      <point x="288" y="358" type="curve"/>
      <point x="118" y="0" type="line"/>
      <point x="24" y="0" type="line"/>
      <point x="255" y="499" type="line"/>
      <point x="246" y="537"/>
      <point x="237" y="570"/>
      <point x="230" y="590" type="curve" smooth="yes"/>
      <point x="215" y="635"/>
      <point x="188" y="660"/>
      <point x="156" y="660" type="curve" smooth="yes"/>
      <point x="111" y="660"/>
      <point x="82" y="627"/>
    </contour>
  </outline>
</glyph>
<glyph name="mu" format="1">
  <advance width="576"/>
  <unicode hex="03BC"/>
  <outline>
    <contour>
      <point x="442" y="500" type="line"/>
      <point x="442" y="131" type="line" smooth="yes"/>
      <point x="442" y="77"/>
      <point x="462" y="41"/>
      <point x="492" y="41" type="curve" smooth="yes"/>
      <point x="515" y="41"/>
      <point x="536" y="71"/>
      <point x="540" y="109" type="curve"/>
      <point x="567" y="108" type="line"/>
      <point x="553" y="31"/>
      <point x="510" y="-13"/>
      <point x="448" y="-13" type="curve" smooth="yes"/>
      <point x="419" y="-13"/>
      <point x="392" y="0"/>
      <point x="377" y="21" type="curve" smooth="yes"/>
      <point x="367" y="36"/>
      <point x="362" y="48"/>
      <point x="354" y="80" type="curve"/>
      <point x="301" y="18"/>
      <point x="250" y="-13"/>
      <point x="200" y="-13" type="curve" smooth="yes"/>
      <point x="166" y="-13"/>
      <point x="143" y="-2"/>
      <point x="101" y="33" type="curve"/>
      <point x="101" y="21" type="line" smooth="yes"/>
      <point x="101" y="-7"/>
      <point x="103" y="-17"/>
      <point x="113" y="-53" type="curve" smooth="yes"/>
      <point x="129" y="-111"/>
      <point x="132" y="-124"/>
      <point x="132" y="-145" type="curve" smooth="yes"/>
      <point x="132" y="-189"/>
      <point x="112" y="-219"/>
      <point x="83" y="-219" type="curve" smooth="yes"/>
      <point x="54" y="-219"/>
      <point x="33" y="-189"/>
      <point x="33" y="-147" type="curve" smooth="yes"/>
      <point x="33" y="-124"/>
      <point x="34" y="-118"/>
      <point x="51" y="-56" type="curve"/>
      <point x="58" y="-26"/>
      <point x="62" y="-1"/>
      <point x="62" y="20" type="curve" smooth="yes"/>
      <point x="62" y="500" type="line"/>
      <point x="150" y="500" type="line"/>
      <point x="150" y="169" type="line" smooth="yes"/>
      <point x="150" y="99"/>
      <point x="184" y="58"/>
      <point x="242" y="58" type="curve" smooth="yes"/>
      <point x="284" y="58"/>
      <point x="318" y="80"/>
      <point x="354" y="131" type="curve"/>
      <point x="353" y="500" type="line"/>
    </contour>
  </outline>
</glyph>
<glyph name="nu" format="1">
  <advance width="521"/>
  <unicode hex="03BD"/>
  <outline>
    <contour>
      <point x="-9" y="459" type="curve"/>
      <point x="-9" y="488" type="line"/>
      <point x="40" y="490"/>
      <point x="80" y="498"/>
      <point x="125" y="513" type="curve"/>
      <point x="280" y="121" type="line"/>
      <point x="349" y="255" type="line"/>
      <point x="373" y="299"/>
      <point x="381" y="324"/>
      <point x="381" y="350" type="curve" smooth="yes"/>
      <point x="381" y="361"/>
      <point x="379" y="376"/>
      <point x="374" y="401" type="curve" smooth="yes"/>
      <point x="365" y="448"/>
      <point x="364" y="451"/>
      <point x="364" y="457" type="curve" smooth="yes"/>
      <point x="364" y="487"/>
      <point x="389" y="513"/>
      <point x="417" y="513" type="curve" smooth="yes"/>
      <point x="449" y="513"/>
      <point x="475" y="486"/>
      <point x="475" y="453" type="curve" smooth="yes"/>
      <point x="475" y="417"/>
      <point x="451" y="357"/>
      <point x="391" y="246" type="curve" smooth="yes"/>
      <point x="332" y="136" type="line" smooth="yes"/>
      <point x="326" y="123"/>
      <point x="320" y="109"/>
      <point x="313" y="95" type="curve" smooth="yes"/>
      <point x="287" y="44"/>
      <point x="286" y="42"/>
      <point x="265" y="-13" type="curve"/>
      <point x="235" y="-13" type="line"/>
      <point x="74" y="396" type="line" smooth="yes"/>
      <point x="50" y="456"/>
      <point x="48" y="458"/>
    </contour>
  </outline>
</glyph>
<glyph name="pi" format="1">
  <advance width="549"/>
  <unicode hex="03C0"/>
  <outline>
    <contour>
      <point x="30" y="348" type="curve"/>
      <point x="10" y="348" type="line"/>
      <point x="27" y="408"/>
      <point x="43" y="437"/>
      <point x="71" y="465" type="curve" smooth="yes"/>
      <point x="100" y="493"/>
      <point x="119" y="500"/>
      <point x="173" y="500" type="curve" smooth="yes"/>
      <point x="523" y="500" type="line"/>
      <point x="523" y="411" type="line"/>
      <point x="397" y="411" type="line"/>
      <point x="390" y="356"/>
      <point x="385" y="263"/>
      <point x="385" y="187" type="curve" smooth="yes"/>
      <point x="385" y="154"/>
      <point x="388" y="138"/>
      <point x="397" y="120" type="curve" smooth="yes"/>
      <point x="408" y="99"/>
      <point x="429" y="85"/>
      <point x="449" y="85" type="curve" smooth="yes"/>
      <point x="482" y="85"/>
      <point x="501" y="110"/>
      <point x="506" y="158" type="curve"/>
      <point x="530" y="158" type="line"/>
      <point x="527" y="108"/>
      <point x="523" y="89"/>
      <point x="509" y="61" type="curve" smooth="yes"/>
      <point x="485" y="14"/>
      <point x="450" y="-13"/>
      <point x="411" y="-13" type="curve" smooth="yes"/>
      <point x="350" y="-13"/>
      <point x="312" y="55"/>
      <point x="312" y="167" type="curve" smooth="yes"/>
      <point x="312" y="224"/>
      <point x="321" y="332"/>
      <point x="333" y="411" type="curve"/>
      <point x="224" y="411" type="line"/>
      <point x="212" y="282" type="line" smooth="yes"/>
      <point x="203" y="181"/>
      <point x="189" y="79"/>
      <point x="180" y="53" type="curve"/>
      <point x="167" y="10"/>
      <point x="143" y="-13"/>
      <point x="112" y="-13" type="curve" smooth="yes"/>
      <point x="81" y="-13"/>
      <point x="57" y="12"/>
      <point x="57" y="42" type="curve" smooth="yes"/>
      <point x="57" y="64"/>
      <point x="66" y="80"/>
      <point x="97" y="108" type="curve" smooth="yes"/>
      <point x="131" y="139"/>
      <point x="144" y="161"/>
      <point x="148" y="189" type="curve" smooth="yes"/>
      <point x="174" y="411" type="line"/>
      <point x="128" y="411" type="line" smooth="yes"/>
      <point x="80" y="411"/>
      <point x="63" y="400"/>
    </contour>
  </outline>
</glyph>
<glyph name="upsilon" format="1">
  <advance width="576"/>
  <unicode hex="03C5"/>
  <outline>
    <contour>
      <point x="37" y="364" type="curve"/>
      <point x="7" y="364" type="line"/>
      <point x="9" y="370"/>
      <point x="10" y="375"/>
      <point x="12" y="379" type="curve" smooth="yes"/>
      <point x="30" y="437"/>
      <point x="36" y="450"/>
      <point x="53" y="473" type="curve" smooth="yes"/>
      <point x="72" y="500"/>
      <point x="98" y="513"/>
      <point x="131" y="513" type="curve" smooth="yes"/>
      <point x="195" y="513"/>
      <point x="222" y="467"/>
      <point x="223" y="351" type="curve" smooth="yes"/>
      <point x="226" y="175" type="line" smooth="yes"/>
      <point x="227" y="89"/>
      <point x="268" y="29"/>
      <point x="325" y="29" type="curve" smooth="yes"/>
      <point x="364" y="29"/>
      <point x="395" y="53"/>
      <point x="416" y="96" type="curve" smooth="yes"/>
      <point x="440" y="146"/>
      <point x="453" y="207"/>
      <point x="453" y="267" type="curve" smooth="yes"/>
      <point x="453" y="332"/>
      <point x="437" y="391"/>
      <point x="409" y="429" type="curve" smooth="yes"/>
      <point x="393" y="452"/>
      <point x="375" y="466"/>
      <point x="335" y="488" type="curve"/>
      <point x="343" y="513" type="line"/>
      <point x="410" y="487"/>
      <point x="442" y="467"/>
      <point x="474" y="430" type="curve" smooth="yes"/>
      <point x="513" y="384"/>
      <point x="535" y="320"/>
      <point x="535" y="250" type="curve" smooth="yes"/>
      <point x="535" y="175"/>
      <point x="511" y="101"/>
      <point x="472" y="54" type="curve"/>
      <point x="435" y="12"/>
      <point x="377" y="-13"/>
      <point x="311" y="-13" type="curve" smooth="yes"/>
      <point x="206" y="-13"/>
      <point x="143" y="58"/>
      <point x="141" y="178" type="curve" smooth="yes"/>
      <point x="138" y="340" type="line" smooth="yes"/>
      <point x="137" y="412"/>
      <point x="128" y="433"/>
      <point x="100" y="433" type="curve" smooth="yes"/>
      <point x="72" y="433"/>
      <point x="50" y="409"/>
    </contour>
  </outline>
</glyph>
<glyph name="phi" format="1">
  <advance width="521"/>
  <unicode hex="03C6"/>
  <outline>
    <contour>
      <point x="279" y="-7" type="curve"/>
      <point x="279" y="-115" type="line"/>
      <point x="279" y="-142" type="line"/>
      <point x="280" y="-186"/>
      <point x="280" y="-189"/>
      <point x="282" y="-222" type="curve"/>
      <point x="235" y="-211" type="line"/>
      <point x="237" y="-183"/>
      <point x="238" y="-155"/>
      <point x="238" y="-110" type="curve" smooth="yes"/>
      <point x="238" y="-9" type="line"/>
      <point x="113" y="1"/>
      <point x="27" y="103"/>
      <point x="27" y="242" type="curve" smooth="yes"/>
      <point x="27" y="380"/>
      <point x="118" y="494"/>
      <point x="238" y="508" type="curve"/>
      <point x="238" y="597" type="line" smooth="yes"/>
      <point x="238" y="637"/>
      <point x="237" y="662"/>
      <point x="235" y="686" type="curve"/>
      <point x="282" y="667" type="line"/>
      <point x="280" y="644"/>
      <point x="279" y="625"/>
      <point x="279" y="588" type="curve" smooth="yes"/>
      <point x="279" y="508" type="line"/>
      <point x="406" y="499"/>
      <point x="490" y="400"/>
      <point x="490" y="263" type="curve" smooth="yes"/>
      <point x="490" y="122"/>
      <point x="402" y="10"/>
    </contour>
    <contour>
      <point x="238" y="33" type="curve"/>
      <point x="238" y="473" type="line"/>
      <point x="167" y="470"/>
      <point x="124" y="400"/>
      <point x="124" y="287" type="curve" smooth="yes"/>
      <point x="124" y="208"/>
      <point x="143" y="132"/>
      <point x="175" y="83" type="curve" smooth="yes"/>
      <point x="190" y="60"/>
      <point x="210" y="44"/>
    </contour>
    <contour>
      <point x="279" y="466" type="curve"/>
      <point x="279" y="28" type="line"/>
      <point x="352" y="32"/>
      <point x="393" y="100"/>
      <point x="393" y="218" type="curve" smooth="yes"/>
      <point x="393" y="345"/>
      <point x="350" y="440"/>
    </contour>
  </outline>
</glyph>
<glyph name="chi" format="1">
  <advance width="549"/>
  <unicode hex="03C7"/>
  <outline>
    <contour>
      <point x="391" y="500" type="line"/>
      <point x="495" y="500" type="line"/>
      <point x="292" y="127" type="line"/>
      <point x="311" y="48" type="line" smooth="yes"/>
      <point x="341" y="-76"/>
      <point x="366" y="-117"/>
      <point x="413" y="-117" type="curve" smooth="yes"/>
      <point x="439" y="-117"/>
      <point x="463" y="-104"/>
      <point x="477" y="-80" type="curve"/>
      <point x="484" y="-70"/>
      <point x="488" y="-60"/>
      <point x="498" y="-25" type="curve"/>
      <point x="522" y="-25" type="line"/>
      <point x="519" y="-77"/>
      <point x="510" y="-114"/>
      <point x="493" y="-145" type="curve" smooth="yes"/>
      <point x="471" y="-184"/>
      <point x="435" y="-210"/>
      <point x="399" y="-210" type="curve" smooth="yes"/>
      <point x="358" y="-210"/>
      <point x="324" y="-179"/>
      <point x="303" y="-123" type="curve" smooth="yes"/>
      <point x="296" y="-103"/>
      <point x="293" y="-89"/>
      <point x="278" y="-14" type="curve"/>
      <point x="262" y="73" type="line"/>
      <point x="120" y="-191" type="line"/>
      <point x="14" y="-191" type="line"/>
      <point x="232" y="207" type="line"/>
      <point x="202" y="331" type="line" smooth="yes"/>
      <point x="196" y="358"/>
      <point x="187" y="381"/>
      <point x="179" y="394" type="curve" smooth="yes"/>
      <point x="163" y="418"/>
      <point x="137" y="434"/>
      <point x="113" y="434" type="curve" smooth="yes"/>
      <point x="76" y="434"/>
      <point x="46" y="395"/>
      <point x="39" y="335" type="curve"/>
      <point x="12" y="335" type="line"/>
      <point x="22" y="446"/>
      <point x="64" y="513"/>
      <point x="124" y="513" type="curve" smooth="yes"/>
      <point x="173" y="513"/>
      <point x="211" y="475"/>
      <point x="226" y="412" type="curve" smooth="yes"/>
      <point x="262" y="262" type="line"/>
    </contour>
  </outline>
</glyph>
<glyph name="psi" format="1">
  <advance width="686"/>
  <unicode hex="03C8"/>
  <outline>
    <contour>
      <point x="389" y="500" type="line"/>
      <point x="389" y="40" type="line"/>
      <point x="455" y="55"/>
      <point x="482" y="95"/>
      <point x="489" y="188" type="curve"/>
      <point x="507" y="357" type="line" smooth="yes"/>
      <point x="512" y="411"/>
      <point x="520" y="434"/>
      <point x="539" y="461" type="curve" smooth="yes"/>
      <point x="562" y="492"/>
      <point x="601" y="513"/>
      <point x="637" y="513" type="curve" smooth="yes"/>
      <point x="655" y="513"/>
      <point x="670" y="510"/>
      <point x="701" y="500" type="curve"/>
      <point x="701" y="481" type="line"/>
      <point x="635" y="469"/>
      <point x="625" y="457"/>
      <point x="617" y="388" type="curve"/>
      <point x="603" y="225" type="line" smooth="yes"/>
      <point x="593" y="107"/>
      <point x="506" y="14"/>
      <point x="389" y="-3" type="curve"/>
      <point x="389" y="-222" type="line"/>
      <point x="324" y="-222" type="line"/>
      <point x="324" y="-3" type="line"/>
      <point x="207" y="14"/>
      <point x="120" y="107"/>
      <point x="110" y="225" type="curve" smooth="yes"/>
      <point x="96" y="388" type="line"/>
      <point x="87" y="459"/>
      <point x="77" y="470"/>
      <point x="12" y="481" type="curve"/>
      <point x="12" y="500" type="line"/>
      <point x="43" y="510"/>
      <point x="58" y="513"/>
      <point x="76" y="513" type="curve" smooth="yes"/>
      <point x="116" y="513"/>
      <point x="157" y="489"/>
      <point x="180" y="452" type="curve" smooth="yes"/>
      <point x="196" y="426"/>
      <point x="201" y="407"/>
      <point x="206" y="357" type="curve" smooth="yes"/>
      <point x="224" y="188" type="line"/>
      <point x="231" y="95"/>
      <point x="258" y="55"/>
      <point x="324" y="40" type="curve"/>
      <point x="324" y="500" type="line"/>
    </contour>
  </outline>
</glyph>
<glyph name="theta1" format="1">
  <advance width="631"/>
  <unicode hex="03D1"/>
  <outline>
    <contour>
      <point x="623" y="330" type="curve"/>
      <point x="623" y="267" type="line"/>
      <point x="603" y="275"/>
      <point x="578" y="286"/>
      <point x="548" y="299" type="curve"/>
      <point x="547" y="243"/>
      <point x="539" y="196"/>
      <point x="519" y="144" type="curve" smooth="yes"/>
      <point x="480" y="40"/>
      <point x="406" y="-13"/>
      <point x="299" y="-13" type="curve" smooth="yes"/>
      <point x="198" y="-13"/>
      <point x="132" y="52"/>
      <point x="132" y="151" type="curve" smooth="yes"/>
      <point x="132" y="187"/>
      <point x="134" y="208"/>
      <point x="148" y="316" type="curve" smooth="yes"/>
      <point x="150" y="330"/>
      <point x="151" y="344"/>
      <point x="151" y="352" type="curve" smooth="yes"/>
      <point x="151" y="377"/>
      <point x="132" y="395"/>
      <point x="106" y="395" type="curve" smooth="yes"/>
      <point x="85" y="395"/>
      <point x="74" y="383"/>
      <point x="45" y="330" type="curve"/>
      <point x="18" y="330" type="line"/>
      <point x="37" y="380"/>
      <point x="41" y="389"/>
      <point x="54" y="408" type="curve" smooth="yes"/>
      <point x="80" y="447"/>
      <point x="106" y="463"/>
      <point x="144" y="463" type="curve" smooth="yes"/>
      <point x="199" y="463"/>
      <point x="239" y="423"/>
      <point x="239" y="369" type="curve" smooth="yes"/>
      <point x="239" y="349"/>
      <point x="239" y="346"/>
      <point x="228" y="251" type="curve" smooth="yes"/>
      <point x="223" y="206"/>
      <point x="220" y="172"/>
      <point x="220" y="153" type="curve" smooth="yes"/>
      <point x="220" y="126"/>
      <point x="228" y="89"/>
      <point x="238" y="69" type="curve" smooth="yes"/>
      <point x="253" y="41"/>
      <point x="286" y="23"/>
      <point x="321" y="23" type="curve" smooth="yes"/>
      <point x="412" y="23"/>
      <point x="471" y="124"/>
      <point x="471" y="282" type="curve"/>
      <point x="470" y="329" type="line"/>
      <point x="326" y="389"/>
      <point x="246" y="475"/>
      <point x="246" y="569" type="curve" smooth="yes"/>
      <point x="246" y="637"/>
      <point x="291" y="686"/>
      <point x="352" y="686" type="curve" smooth="yes"/>
      <point x="395" y="686"/>
      <point x="437" y="661"/>
      <point x="473" y="614" type="curve" smooth="yes"/>
      <point x="520" y="552"/>
      <point x="535" y="501"/>
      <point x="548" y="354" type="curve"/>
      <point x="556" y="352"/>
      <point x="570" y="346"/>
      <point x="591" y="339" type="curve" smooth="yes"/>
      <point x="594" y="338"/>
      <point x="604" y="335"/>
    </contour>
    <contour>
      <point x="470" y="382" type="curve"/>
      <point x="458" y="486"/>
      <point x="451" y="524"/>
      <point x="436" y="560" type="curve" smooth="yes"/>
      <point x="413" y="619"/>
      <point x="381" y="650"/>
      <point x="342" y="650" type="curve" smooth="yes"/>
      <point x="306" y="650"/>
      <point x="280" y="621"/>
      <point x="280" y="581" type="curve" smooth="yes"/>
      <point x="280" y="505"/>
      <point x="357" y="425"/>
    </contour>
  </outline>
</glyph>
<glyph name="phi1" format="1">
  <advance width="603"/>
  <unicode hex="03D5"/>
  <outline>
    <contour>
      <point x="250" y="508" type="curve"/>
      <point x="250" y="485" type="line"/>
      <point x="180" y="458"/>
      <point x="146" y="392"/>
      <point x="146" y="283" type="curve" smooth="yes"/>
      <point x="146" y="143"/>
      <point x="196" y="56"/>
      <point x="282" y="44" type="curve"/>
      <point x="274" y="317" type="line" smooth="yes"/>
      <point x="273" y="341"/>
      <point x="273" y="354"/>
      <point x="273" y="354" type="curve"/>
      <point x="273" y="450"/>
      <point x="322" y="513"/>
      <point x="398" y="513" type="curve" smooth="yes"/>
      <point x="498" y="513"/>
      <point x="587" y="398"/>
      <point x="587" y="268" type="curve" smooth="yes"/>
      <point x="587" y="125"/>
      <point x="479" y="4"/>
      <point x="349" y="1" type="curve"/>
      <point x="349" y="-222" type="line"/>
      <point x="282" y="-222" type="line"/>
      <point x="282" y="1" type="line"/>
      <point x="142" y="8"/>
      <point x="36" y="123"/>
      <point x="36" y="270" type="curve" smooth="yes"/>
      <point x="36" y="404"/>
      <point x="124" y="501"/>
    </contour>
    <contour>
      <point x="337" y="305" type="curve" smooth="yes"/>
      <point x="349" y="42" type="line"/>
      <point x="439" y="49"/>
      <point x="499" y="126"/>
      <point x="499" y="235" type="curve" smooth="yes"/>
      <point x="499" y="335"/>
      <point x="444" y="436"/>
      <point x="389" y="436" type="curve" smooth="yes"/>
      <point x="355" y="436"/>
      <point x="336" y="399"/>
      <point x="336" y="330" type="curve" smooth="yes"/>
      <point x="336" y="328"/>
      <point x="336" y="318"/>
    </contour>
  </outline>
</glyph>
<glyph name="omega1" format="1">
  <advance width="713"/>
  <unicode hex="03D6"/>
  <outline>
    <contour>
      <point x="671" y="493" type="line"/>
      <point x="506" y="493" type="line"/>
      <point x="603" y="468"/>
      <point x="667" y="363"/>
      <point x="667" y="230" type="curve" smooth="yes"/>
      <point x="667" y="93"/>
      <point x="589" y="-13"/>
      <point x="487" y="-13" type="curve" smooth="yes"/>
      <point x="426" y="-13"/>
      <point x="380" y="20"/>
      <point x="346" y="88" type="curve"/>
      <point x="312" y="20"/>
      <point x="266" y="-13"/>
      <point x="205" y="-13" type="curve" smooth="yes"/>
      <point x="103" y="-13"/>
      <point x="25" y="93"/>
      <point x="25" y="230" type="curve" smooth="yes"/>
      <point x="25" y="362"/>
      <point x="88" y="466"/>
      <point x="184" y="493" type="curve"/>
      <point x="112" y="492"/>
      <point x="76" y="480"/>
      <point x="29" y="441" type="curve"/>
      <point x="12" y="441" type="line"/>
      <point x="29" y="491"/>
      <point x="51" y="525"/>
      <point x="85" y="553" type="curve" smooth="yes"/>
      <point x="114" y="576"/>
      <point x="134" y="583"/>
      <point x="171" y="583" type="curve" smooth="yes"/>
      <point x="671" y="583" type="line"/>
    </contour>
    <contour>
      <point x="411" y="493" type="curve"/>
      <point x="281" y="493" type="line"/>
      <point x="239" y="480"/>
      <point x="214" y="465"/>
      <point x="191" y="440" type="curve" smooth="yes"/>
      <point x="154" y="399"/>
      <point x="131" y="320"/>
      <point x="131" y="238" type="curve" smooth="yes"/>
      <point x="131" y="174"/>
      <point x="143" y="111"/>
      <point x="162" y="75" type="curve" smooth="yes"/>
      <point x="174" y="52"/>
      <point x="199" y="37"/>
      <point x="226" y="37" type="curve" smooth="yes"/>
      <point x="258" y="37"/>
      <point x="289" y="59"/>
      <point x="304" y="92" type="curve" smooth="yes"/>
      <point x="313" y="111"/>
      <point x="316" y="125"/>
      <point x="322" y="159" type="curve"/>
      <point x="298" y="227"/>
      <point x="292" y="258"/>
      <point x="292" y="307" type="curve" smooth="yes"/>
      <point x="292" y="376"/>
      <point x="312" y="418"/>
      <point x="346" y="418" type="curve" smooth="yes"/>
      <point x="380" y="418"/>
      <point x="400" y="376"/>
      <point x="400" y="307" type="curve" smooth="yes"/>
      <point x="400" y="258"/>
      <point x="394" y="227"/>
      <point x="370" y="159" type="curve"/>
      <point x="376" y="125"/>
      <point x="379" y="111"/>
      <point x="388" y="92" type="curve" smooth="yes"/>
      <point x="403" y="59"/>
      <point x="434" y="37"/>
      <point x="466" y="37" type="curve" smooth="yes"/>
      <point x="493" y="37"/>
      <point x="518" y="52"/>
      <point x="530" y="75" type="curve" smooth="yes"/>
      <point x="549" y="111"/>
      <point x="561" y="173"/>
      <point x="561" y="238" type="curve" smooth="yes"/>
      <point x="561" y="328"/>
      <point x="535" y="409"/>
      <point x="492" y="449" type="curve" smooth="yes"/>
      <point x="470" y="470"/>
      <point x="448" y="482"/>
    </contour>
  </outline>
</glyph>
<glyph name="ellipsis" format="1">
  <advance width="1000"/>
  <unicode hex="2026"/>
  <outline>
    <contour>
      <point x="168" y="100" type="curve" smooth="yes"/>
      <point x="197" y="100"/>
      <point x="223" y="74"/>
      <point x="223" y="44" type="curve" smooth="yes"/>
      <point x="223" y="13"/>
      <point x="198" y="-13"/>
      <point x="167" y="-13" type="curve" smooth="yes"/>
      <point x="136" y="-13"/>
      <point x="111" y="13"/>
      <point x="111" y="44" type="curve" smooth="yes"/>
      <point x="111" y="75"/>
      <point x="137" y="100"/>
    </contour>
    <contour>
      <point x="501" y="100" type="curve" smooth="yes"/>
      <point x="530" y="100"/>
      <point x="556" y="74"/>
      <point x="556" y="44" type="curve" smooth="yes"/>
      <point x="556" y="13"/>
      <point x="531" y="-13"/>
      <point x="500" y="-13" type="curve" smooth="yes"/>
      <point x="469" y="-13"/>
      <point x="444" y="13"/>
      <point x="444" y="44" type="curve" smooth="yes"/>
      <point x="444" y="75"/>
      <point x="470" y="100"/>
    </contour>
    <contour>
      <point x="834" y="100" type="curve" smooth="yes"/>
      <point x="863" y="100"/>
      <point x="889" y="74"/>
      <point x="889" y="44" type="curve" smooth="yes"/>
      <point x="889" y="13"/>
      <point x="864" y="-13"/>
      <point x="833" y="-13" type="curve" smooth="yes"/>
      <point x="802" y="-13"/>
      <point x="777" y="13"/>
      <point x="777" y="44" type="curve" smooth="yes"/>
      <point x="777" y="75"/>
      <point x="803" y="100"/>
    </contour>
  </outline>
</glyph>
<glyph name="fraction" format="1">
  <advance width="167"/>
  <unicode hex="2044"/>
  <outline>
    <contour>
      <point x="-180" y="0" type="line"/>
      <point x="290" y="673" type="line"/>
      <point x="340" y="673" type="line"/>
      <point x="-131" y="0" type="line"/>
    </contour>
  </outline>
</glyph>
<glyph name="Rfraktur" format="1">
  <advance width="795"/>
  <unicode hex="211C"/>
  <outline>
    <contour>
      <point x="73" y="33" type="line"/>
      <point x="165" y="114" type="line" smooth="yes"/>
      <point x="173" y="121"/>
      <point x="179" y="124"/>
      <point x="184" y="124" type="curve" smooth="yes"/>
      <point x="188" y="124"/>
      <point x="194" y="121"/>
      <point x="202" y="116" type="curve" smooth="yes"/>
      <point x="275" y="65" type="line"/>
      <point x="323" y="136"/>
      <point x="337" y="193"/>
      <point x="341" y="338" type="curve"/>
      <point x="340" y="396" type="line"/>
      <point x="340" y="471"/>
      <point x="327" y="559"/>
      <point x="312" y="593" type="curve" smooth="yes"/>
      <point x="290" y="642"/>
      <point x="246" y="669"/>
      <point x="191" y="669" type="curve" smooth="yes"/>
      <point x="120" y="669"/>
      <point x="63" y="618"/>
      <point x="63" y="556" type="curve" smooth="yes"/>
      <point x="63" y="532"/>
      <point x="72" y="510"/>
      <point x="88" y="493" type="curve" smooth="yes"/>
      <point x="98" y="483"/>
      <point x="114" y="473"/>
      <point x="160" y="450" type="curve" smooth="yes"/>
      <point x="214" y="422" type="line" smooth="yes"/>
      <point x="242" y="408"/>
      <point x="258" y="388"/>
      <point x="258" y="367" type="curve" smooth="yes"/>
      <point x="258" y="357"/>
      <point x="254" y="345"/>
      <point x="247" y="335" type="curve" smooth="yes"/>
      <point x="211" y="281" type="line"/>
      <point x="186" y="300" type="line"/>
      <point x="200" y="311"/>
      <point x="205" y="318"/>
      <point x="205" y="327" type="curve" smooth="yes"/>
      <point x="205" y="339"/>
      <point x="194" y="349"/>
      <point x="166" y="363" type="curve" smooth="yes"/>
      <point x="118" y="387" type="line" smooth="yes"/>
      <point x="81" y="405"/>
      <point x="67" y="416"/>
      <point x="52" y="439" type="curve" smooth="yes"/>
      <point x="35" y="464"/>
      <point x="26" y="496"/>
      <point x="26" y="530" type="curve" smooth="yes"/>
      <point x="26" y="644"/>
      <point x="116" y="729"/>
      <point x="238" y="729" type="curve" smooth="yes"/>
      <point x="320" y="729"/>
      <point x="368" y="698"/>
      <point x="406" y="621" type="curve"/>
      <point x="533" y="713" type="line" smooth="yes"/>
      <point x="552" y="726"/>
      <point x="559" y="730"/>
      <point x="569" y="730" type="curve" smooth="yes"/>
      <point x="577" y="730"/>
      <point x="584" y="726"/>
      <point x="597" y="716" type="curve" smooth="yes"/>
      <point x="752" y="582" type="line"/>
      <point x="571" y="453" type="line"/>
      <point x="624" y="384"/>
      <point x="644" y="322"/>
      <point x="672" y="131" type="curve" smooth="yes"/>
      <point x="676" y="100"/>
      <point x="685" y="86"/>
      <point x="704" y="86" type="curve" smooth="yes"/>
      <point x="712" y="86"/>
      <point x="721" y="89"/>
      <point x="742" y="97" type="curve"/>
      <point x="759" y="74" type="line"/>
      <point x="649" y="-14" type="line"/>
      <point x="583" y="18"/>
      <point x="571" y="48"/>
      <point x="552" y="224" type="curve"/>
      <point x="544" y="288"/>
      <point x="530" y="345"/>
      <point x="518" y="367" type="curve" smooth="yes"/>
      <point x="509" y="383"/>
      <point x="496" y="391"/>
      <point x="479" y="391" type="curve" smooth="yes"/>
      <point x="470" y="391" type="line"/>
      <point x="457" y="413" type="line"/>
      <point x="649" y="546" type="line"/>
      <point x="565" y="622" type="line" smooth="yes"/>
      <point x="545" y="640"/>
      <point x="533" y="646"/>
      <point x="517" y="646" type="curve" smooth="yes"/>
      <point x="507" y="646"/>
      <point x="496" y="642"/>
      <point x="483" y="634" type="curve" smooth="yes"/>
      <point x="418" y="592" type="line"/>
      <point x="430" y="511"/>
      <point x="437" y="438"/>
      <point x="437" y="394" type="curve" smooth="yes"/>
      <point x="436" y="323" type="line"/>
      <point x="436" y="226"/>
      <point x="423" y="180"/>
      <point x="380" y="123" type="curve"/>
      <point x="333" y="65"/>
      <point x="276" y="14"/>
      <point x="223" y="-16" type="curve"/>
      <point x="210" y="-5"/>
      <point x="198" y="4"/>
      <point x="194" y="7" type="curve" smooth="yes"/>
      <point x="169" y="27"/>
      <point x="154" y="35"/>
      <point x="139" y="35" type="curve" smooth="yes"/>
      <point x="126" y="35"/>
      <point x="114" y="30"/>
      <point x="92" y="17" type="curve"/>
    </contour>
  </outline>
</glyph>
<glyph name="arrowleft" format="1">
  <advance width="987"/>
  <unicode hex="2190"/>
  <outline>
    <contour>
      <point x="942" y="220" type="line"/>
      <point x="152" y="220" type="line"/>
      <point x="220" y="146"/>
      <point x="280" y="76"/>
      <point x="321" y="23" type="curve"/>
      <point x="283" y="-15" type="line"/>
      <point x="184" y="101"/>
      <point x="96" y="193"/>
      <point x="32" y="248" type="curve"/>
      <point x="97" y="303"/>
      <point x="184" y="395"/>
      <point x="283" y="511" type="curve"/>
      <point x="321" y="473" type="line"/>
      <point x="280" y="420"/>
      <point x="220" y="350"/>
      <point x="152" y="276" type="curve"/>
      <point x="942" y="276" type="line"/>
    </contour>
  </outline>
</glyph>
<glyph name="arrowup" format="1">
  <advance width="603"/>
  <unicode hex="2191"/>
  <outline>
    <contour>
      <point x="83" y="621" type="curve"/>
      <point x="45" y="659" type="line"/>
      <point x="158" y="755"/>
      <point x="255" y="848"/>
      <point x="308" y="910" type="curve"/>
      <point x="361" y="848"/>
      <point x="458" y="755"/>
      <point x="571" y="659" type="curve"/>
      <point x="533" y="621" type="line"/>
      <point x="480" y="662"/>
      <point x="411" y="721"/>
      <point x="336" y="790" type="curve"/>
      <point x="336" y="0" type="line"/>
      <point x="280" y="0" type="line"/>
      <point x="280" y="790" type="line"/>
      <point x="205" y="721"/>
      <point x="136" y="662"/>
    </contour>
  </outline>
</glyph>
<glyph name="arrowright" format="1">
  <advance width="987"/>
  <unicode hex="2192"/>
  <outline>
    <contour>
      <point x="839" y="220" type="curve"/>
      <point x="49" y="220" type="line"/>
      <point x="49" y="276" type="line"/>
      <point x="839" y="276" type="line"/>
      <point x="771" y="350"/>
      <point x="711" y="420"/>
      <point x="670" y="473" type="curve"/>
      <point x="708" y="511" type="line"/>
      <point x="807" y="395"/>
      <point x="895" y="303"/>
      <point x="959" y="248" type="curve"/>
      <point x="895" y="193"/>
      <point x="807" y="101"/>
      <point x="708" y="-15" type="curve"/>
      <point x="670" y="23" type="line"/>
      <point x="711" y="76"/>
      <point x="771" y="146"/>
    </contour>
  </outline>
</glyph>
<glyph name="arrowdown" format="1">
  <advance width="603"/>
  <unicode hex="2193"/>
  <outline>
    <contour>
      <point x="533" y="267" type="curve"/>
      <point x="571" y="229" type="line"/>
      <point x="458" y="133"/>
      <point x="361" y="40"/>
      <point x="308" y="-22" type="curve"/>
      <point x="255" y="40"/>
      <point x="158" y="133"/>
      <point x="45" y="229" type="curve"/>
      <point x="83" y="267" type="line"/>
      <point x="136" y="226"/>
      <point x="205" y="167"/>
      <point x="280" y="98" type="curve"/>
      <point x="280" y="888" type="line"/>
      <point x="336" y="888" type="line"/>
      <point x="336" y="98" type="line"/>
      <point x="411" y="167"/>
      <point x="480" y="226"/>
    </contour>
  </outline>
</glyph>
<glyph name="arrowboth" format="1">
  <advance width="1042"/>
  <unicode hex="2194"/>
  <outline>
    <contour>
      <point x="143" y="276" type="curve"/>
      <point x="905" y="276" type="line"/>
      <point x="836" y="351"/>
      <point x="776" y="421"/>
      <point x="735" y="474" type="curve"/>
      <point x="773" y="512" type="line"/>
      <point x="875" y="392"/>
      <point x="939" y="325"/>
      <point x="1024" y="248" type="curve"/>
      <point x="940" y="172"/>
      <point x="875" y="103"/>
      <point x="773" y="-16" type="curve"/>
      <point x="735" y="22" type="line"/>
      <point x="776" y="75"/>
      <point x="836" y="145"/>
      <point x="905" y="220" type="curve"/>
      <point x="143" y="220" type="line"/>
      <point x="212" y="146"/>
      <point x="272" y="75"/>
      <point x="313" y="22" type="curve"/>
      <point x="275" y="-16" type="line"/>
      <point x="173" y="103"/>
      <point x="108" y="172"/>
      <point x="24" y="248" type="curve"/>
      <point x="109" y="325"/>
      <point x="173" y="392"/>
      <point x="275" y="512" type="curve"/>
      <point x="313" y="474" type="line"/>
      <point x="272" y="421"/>
      <point x="212" y="351"/>
    </contour>
  </outline>
</glyph>
<glyph name="carriagereturn" format="1">
  <advance width="658"/>
  <unicode hex="21B5"/>
  <outline>
    <contour>
      <point x="602" y="68" type="line"/>
      <point x="185" y="68" type="line"/>
      <point x="185" y="-16" type="line"/>
      <point x="15" y="96" type="line"/>
      <point x="185" y="208" type="line"/>
      <point x="185" y="124" type="line"/>
      <point x="547" y="124" type="line"/>
      <point x="547" y="629" type="line"/>
      <point x="602" y="629" type="line"/>
    </contour>
  </outline>
</glyph>
<glyph name="arrowdblright" format="1">
  <advance width="987"/>
  <unicode hex="21D2"/>
  <outline>
    <contour>
      <point x="45" y="167" type="line"/>
      <point x="787" y="166" type="line"/>
      <point x="791" y="169"/>
      <point x="793" y="172"/>
      <point x="795" y="173" type="curve" smooth="yes"/>
      <point x="805" y="184"/>
      <point x="816" y="194"/>
      <point x="827" y="206" type="curve" smooth="yes"/>
      <point x="842" y="221"/>
      <point x="851" y="230"/>
      <point x="867" y="244" type="curve"/>
      <point x="852" y="256"/>
      <point x="844" y="264"/>
      <point x="827" y="281" type="curve" smooth="yes"/>
      <point x="794" y="314" type="line"/>
      <point x="787" y="321" type="line"/>
      <point x="45" y="320" type="line"/>
      <point x="45" y="375" type="line"/>
      <point x="740" y="375" type="line"/>
      <point x="726" y="391"/>
      <point x="721" y="398"/>
      <point x="710" y="410" type="curve"/>
      <point x="698" y="425" type="line" smooth="yes"/>
      <point x="689" y="437"/>
      <point x="680" y="449"/>
      <point x="671" y="460" type="curve" smooth="yes"/>
      <point x="662" y="472" type="line"/>
      <point x="705" y="506" type="line"/>
      <point x="776" y="414"/>
      <point x="871" y="315"/>
      <point x="954" y="244" type="curve"/>
      <point x="870" y="171"/>
      <point x="777" y="74"/>
      <point x="705" y="-19" type="curve"/>
      <point x="662" y="15" type="line"/>
      <point x="667" y="21"/>
      <point x="679" y="37"/>
      <point x="698" y="62" type="curve" smooth="yes"/>
      <point x="710" y="77"/>
      <point x="722" y="92"/>
      <point x="740" y="112" type="curve"/>
      <point x="45" y="112" type="line"/>
    </contour>
  </outline>
</glyph>
<glyph name="universal" format="1">
  <advance width="713"/>
  <unicode hex="2200"/>
  <outline>
    <contour>
      <point x="681" y="673" type="line"/>
      <point x="391" y="0" type="line"/>
      <point x="334" y="0" type="line"/>
      <point x="31" y="673" type="line"/>
      <point x="83" y="673" type="line"/>
      <point x="168" y="479" type="line"/>
      <point x="546" y="479" type="line"/>
      <point x="628" y="673" type="line"/>
    </contour>
    <contour>
      <point x="191" y="430" type="line"/>
      <point x="363" y="65" type="line"/>
      <point x="525" y="430" type="line"/>
    </contour>
  </outline>
</glyph>
<glyph name="existential" format="1">
  <advance width="549"/>
  <unicode hex="2203"/>
  <outline>
    <contour>
      <point x="478" y="673" type="line"/>
      <point x="478" y="0" type="line"/>
      <point x="25" y="0" type="line"/>
      <point x="25" y="49" type="line"/>
      <point x="423" y="49" type="line"/>
      <point x="423" y="328" type="line"/>
      <point x="70" y="328" type="line"/>
      <point x="70" y="377" type="line"/>
      <point x="423" y="377" type="line"/>
      <point x="423" y="622" type="line"/>
      <point x="25" y="622" type="line"/>
      <point x="25" y="673" type="line"/>
    </contour>
  </outline>
</glyph>
<glyph name="emptyset" format="1">
  <advance width="823"/>
  <unicode hex="2205"/>
  <outline>
    <contour>
      <point x="39" y="13" type="line"/>
      <point x="140" y="114" type="line"/>
      <point x="83" y="179"/>
      <point x="51" y="264"/>
      <point x="51" y="352" type="curve" smooth="yes"/>
      <point x="51" y="553"/>
      <point x="215" y="717"/>
      <point x="416" y="717" type="curve" smooth="yes"/>
      <point x="504" y="717"/>
      <point x="585" y="687"/>
      <point x="654" y="628" type="curve"/>
      <point x="744" y="718" type="line"/>
      <point x="781" y="681" type="line"/>
      <point x="692" y="592" type="line"/>
      <point x="751" y="521"/>
      <point x="781" y="440"/>
      <point x="781" y="352" type="curve" smooth="yes"/>
      <point x="781" y="151"/>
      <point x="617" y="-13"/>
      <point x="416" y="-13" type="curve" smooth="yes"/>
      <point x="328" y="-13"/>
      <point x="242" y="19"/>
      <point x="176" y="76" type="curve"/>
      <point x="76" y="-24" type="line"/>
    </contour>
    <contour>
      <point x="179" y="153" type="curve"/>
      <point x="615" y="589" type="line"/>
      <point x="561" y="635"/>
      <point x="489" y="661"/>
      <point x="416" y="661" type="curve" smooth="yes"/>
      <point x="245" y="661"/>
      <point x="106" y="522"/>
      <point x="106" y="352" type="curve" smooth="yes"/>
      <point x="106" y="279"/>
      <point x="131" y="212"/>
    </contour>
    <contour>
      <point x="652" y="552" type="curve"/>
      <point x="216" y="116" type="line"/>
      <point x="271" y="69"/>
      <point x="343" y="43"/>
      <point x="416" y="43" type="curve" smooth="yes"/>
      <point x="587" y="43"/>
      <point x="726" y="182"/>
      <point x="726" y="352" type="curve" smooth="yes"/>
      <point x="726" y="425"/>
      <point x="699" y="498"/>
    </contour>
  </outline>
</glyph>
<glyph name="element" format="1">
  <advance width="713"/>
  <unicode hex="2208"/>
  <outline>
    <contour>
      <point x="101" y="263" type="curve"/>
      <point x="505" y="263" type="line"/>
      <point x="505" y="207" type="line"/>
      <point x="101" y="207" type="line"/>
      <point x="108" y="167"/>
      <point x="124" y="133"/>
      <point x="151" y="107" type="curve" smooth="yes"/>
      <point x="180" y="78"/>
      <point x="210" y="66"/>
      <point x="264" y="59" type="curve"/>
      <point x="288" y="57"/>
      <point x="309" y="56"/>
      <point x="390" y="56" type="curve" smooth="yes"/>
      <point x="505" y="56" type="line"/>
      <point x="505" y="0" type="line"/>
      <point x="392" y="0" type="line" smooth="yes"/>
      <point x="283" y="0"/>
      <point x="264" y="1"/>
      <point x="230" y="7" type="curve" smooth="yes"/>
      <point x="170" y="17"/>
      <point x="124" y="47"/>
      <point x="88" y="98" type="curve" smooth="yes"/>
      <point x="60" y="138"/>
      <point x="45" y="186"/>
      <point x="45" y="235" type="curve" smooth="yes"/>
      <point x="45" y="316"/>
      <point x="87" y="392"/>
      <point x="154" y="436" type="curve" smooth="yes"/>
      <point x="183" y="454"/>
      <point x="222" y="465"/>
      <point x="274" y="468" type="curve"/>
      <point x="291" y="470"/>
      <point x="324" y="470"/>
      <point x="392" y="470" type="curve" smooth="yes"/>
      <point x="505" y="470" type="line"/>
      <point x="505" y="414" type="line"/>
      <point x="390" y="414" type="line" smooth="yes"/>
      <point x="266" y="414"/>
      <point x="243" y="412"/>
      <point x="201" y="396" type="curve" smooth="yes"/>
      <point x="151" y="378"/>
      <point x="111" y="325"/>
    </contour>
  </outline>
</glyph>
<glyph name="notelement" format="1">
  <advance width="713"/>
  <unicode hex="2209"/>
  <outline>
    <contour>
      <point x="383" y="414" type="line"/>
      <point x="306" y="263" type="line"/>
      <point x="505" y="263" type="line"/>
      <point x="505" y="207" type="line"/>
      <point x="278" y="207" type="line"/>
      <point x="209" y="71" type="line"/>
      <point x="247" y="58"/>
      <point x="272" y="56"/>
      <point x="390" y="56" type="curve" smooth="yes"/>
      <point x="505" y="56" type="line"/>
      <point x="505" y="0" type="line"/>
      <point x="392" y="0" type="line" smooth="yes"/>
      <point x="254" y="0"/>
      <point x="229" y="2"/>
      <point x="183" y="20" type="curve"/>
      <point x="144" y="-58" type="line"/>
      <point x="98" y="-34" type="line"/>
      <point x="138" y="46" type="line"/>
      <point x="78" y="93"/>
      <point x="45" y="160"/>
      <point x="45" y="235" type="curve" smooth="yes"/>
      <point x="45" y="330"/>
      <point x="106" y="422"/>
      <point x="187" y="452" type="curve" smooth="yes"/>
      <point x="231" y="468"/>
      <point x="245" y="469"/>
      <point x="352" y="470" type="curve"/>
      <point x="395" y="555" type="line"/>
      <point x="442" y="531" type="line"/>
      <point x="411" y="470" type="line"/>
      <point x="505" y="470" type="line"/>
      <point x="505" y="414" type="line"/>
    </contour>
    <contour>
      <point x="248" y="263" type="line"/>
      <point x="324" y="414" type="line"/>
      <point x="190" y="416"/>
      <point x="122" y="370"/>
      <point x="101" y="263" type="curve"/>
    </contour>
    <contour>
      <point x="164" y="96" type="curve"/>
      <point x="220" y="207" type="line"/>
      <point x="101" y="207" type="line"/>
      <point x="108" y="161"/>
      <point x="130" y="123"/>
    </contour>
  </outline>
</glyph>
<glyph name="suchthat" format="1">
  <advance width="439"/>
  <unicode hex="220B"/>
  <outline>
    <contour>
      <point x="48" y="6" type="curve"/>
      <point x="48" y="43" type="line"/>
      <point x="76" y="37"/>
      <point x="98" y="34"/>
      <point x="121" y="34" type="curve" smooth="yes"/>
      <point x="181" y="34"/>
      <point x="240" y="58"/>
      <point x="275" y="96" type="curve" smooth="yes"/>
      <point x="307" y="132"/>
      <point x="322" y="165"/>
      <point x="330" y="221" type="curve"/>
      <point x="112" y="221" type="line"/>
      <point x="112" y="269" type="line"/>
      <point x="330" y="269" type="line"/>
      <point x="322" y="328"/>
      <point x="305" y="365"/>
      <point x="269" y="401" type="curve" smooth="yes"/>
      <point x="234" y="436"/>
      <point x="176" y="457"/>
      <point x="116" y="457" type="curve" smooth="yes"/>
      <point x="107" y="457"/>
      <point x="98" y="456"/>
      <point x="79" y="455" type="curve"/>
      <point x="79" y="492" type="line"/>
      <point x="110" y="500"/>
      <point x="127" y="503"/>
      <point x="149" y="503" type="curve" smooth="yes"/>
      <point x="289" y="503"/>
      <point x="414" y="381"/>
      <point x="414" y="245" type="curve" smooth="yes"/>
      <point x="414" y="179"/>
      <point x="382" y="110"/>
      <point x="328" y="59" type="curve" smooth="yes"/>
      <point x="276" y="11"/>
      <point x="215" y="-13"/>
      <point x="144" y="-13" type="curve" smooth="yes"/>
      <point x="108" y="-13"/>
      <point x="82" y="-8"/>
    </contour>
  </outline>
</glyph>
<glyph name="minus" format="1">
  <advance width="549"/>
  <unicode hex="2212"/>
  <outline>
    <contour>
      <point x="11" y="294" type="line"/>
      <point x="535" y="294" type="line"/>
      <point x="535" y="239" type="line"/>
      <point x="11" y="239" type="line"/>
    </contour>
  </outline>
</glyph>
<glyph name="proportional" format="1">
  <advance width="713"/>
  <unicode hex="221D"/>
  <outline>
    <contour>
      <point x="639" y="413" type="curve"/>
      <point x="630" y="361" type="line"/>
      <point x="553" y="364"/>
      <point x="483" y="332"/>
      <point x="418" y="264" type="curve"/>
      <point x="483" y="195"/>
      <point x="552" y="163"/>
      <point x="630" y="166" type="curve"/>
      <point x="639" y="114" type="line"/>
      <point x="605" y="114" type="line" smooth="yes"/>
      <point x="513" y="114"/>
      <point x="457" y="143"/>
      <point x="385" y="227" type="curve"/>
      <point x="375" y="213"/>
      <point x="369" y="205"/>
      <point x="354" y="190" type="curve" smooth="yes"/>
      <point x="298" y="137"/>
      <point x="250" y="114"/>
      <point x="190" y="114" type="curve" smooth="yes"/>
      <point x="96" y="114"/>
      <point x="27" y="177"/>
      <point x="27" y="264" type="curve" smooth="yes"/>
      <point x="27" y="350"/>
      <point x="96" y="413"/>
      <point x="190" y="413" type="curve" smooth="yes"/>
      <point x="250" y="413"/>
      <point x="298" y="391"/>
      <point x="354" y="337" type="curve" smooth="yes"/>
      <point x="369" y="322"/>
      <point x="375" y="314"/>
      <point x="385" y="301" type="curve"/>
      <point x="471" y="396"/>
      <point x="515" y="416"/>
    </contour>
    <contour>
      <point x="351" y="264" type="curve"/>
      <point x="348" y="267"/>
      <point x="348" y="267"/>
      <point x="344" y="272" type="curve" smooth="yes"/>
      <point x="297" y="329"/>
      <point x="240" y="361"/>
      <point x="188" y="361" type="curve" smooth="yes"/>
      <point x="161" y="361"/>
      <point x="133" y="352"/>
      <point x="111" y="336" type="curve" smooth="yes"/>
      <point x="89" y="320"/>
      <point x="77" y="295"/>
      <point x="77" y="264" type="curve" smooth="yes"/>
      <point x="77" y="228"/>
      <point x="91" y="202"/>
      <point x="121" y="185" type="curve" smooth="yes"/>
      <point x="142" y="173"/>
      <point x="165" y="166"/>
      <point x="188" y="166" type="curve" smooth="yes"/>
      <point x="244" y="166"/>
      <point x="293" y="195"/>
    </contour>
  </outline>
</glyph>
<glyph name="infinity" format="1">
  <advance width="713"/>
  <unicode hex="221E"/>
  <outline>
    <contour>
      <point x="357" y="227" type="curve"/>
      <point x="327" y="192" type="line"/>
      <point x="281" y="142"/>
      <point x="224" y="115"/>
      <point x="167" y="115" type="curve" smooth="yes"/>
      <point x="84" y="115"/>
      <point x="26" y="176"/>
      <point x="26" y="263" type="curve" smooth="yes"/>
      <point x="26" y="351"/>
      <point x="87" y="414"/>
      <point x="171" y="414" type="curve" smooth="yes"/>
      <point x="234" y="414"/>
      <point x="300" y="375"/>
      <point x="357" y="303" type="curve"/>
      <point x="412" y="375"/>
      <point x="476" y="414"/>
      <point x="543" y="414" type="curve" smooth="yes"/>
      <point x="629" y="414"/>
      <point x="688" y="354"/>
      <point x="688" y="266" type="curve" smooth="yes"/>
      <point x="688" y="176"/>
      <point x="631" y="115"/>
      <point x="548" y="115" type="curve" smooth="yes"/>
      <point x="485" y="115"/>
      <point x="415" y="156"/>
    </contour>
    <contour>
      <point x="391" y="264" type="curve"/>
      <point x="461" y="189"/>
      <point x="496" y="167"/>
      <point x="549" y="167" type="curve" smooth="yes"/>
      <point x="603" y="167"/>
      <point x="638" y="205"/>
      <point x="638" y="264" type="curve" smooth="yes"/>
      <point x="638" y="321"/>
      <point x="600" y="362"/>
      <point x="546" y="362" type="curve" smooth="yes"/>
      <point x="493" y="362"/>
      <point x="434" y="324"/>
    </contour>
    <contour>
      <point x="324" y="266" type="curve"/>
      <point x="321" y="270"/>
      <point x="321" y="270"/>
      <point x="317" y="274" type="curve" smooth="yes"/>
      <point x="260" y="336"/>
      <point x="215" y="362"/>
      <point x="167" y="362" type="curve" smooth="yes"/>
      <point x="113" y="362"/>
      <point x="76" y="323"/>
      <point x="76" y="266" type="curve" smooth="yes"/>
      <point x="76" y="208"/>
      <point x="111" y="167"/>
      <point x="163" y="167" type="curve" smooth="yes"/>
      <point x="215" y="167"/>
      <point x="276" y="204"/>
    </contour>
  </outline>
</glyph>
<glyph name="angle" format="1">
  <advance width="768"/>
  <unicode hex="2220"/>
  <outline>
    <contour>
      <point x="26" y="0" type="line"/>
      <point x="693" y="672" type="line"/>
      <point x="738" y="632" type="line"/>
      <point x="169" y="57" type="line"/>
      <point x="703" y="57" type="line"/>
      <point x="701" y="-1" type="line"/>
    </contour>
  </outline>
</glyph>
<glyph name="logicaland" format="1">
  <advance width="603"/>
  <unicode hex="2227"/>
  <outline>
    <contour>
      <point x="304" y="476" type="line"/>
      <point x="583" y="32" type="line"/>
      <point x="537" y="0" type="line"/>
      <point x="303" y="370" type="line"/>
      <point x="69" y="-1" type="line"/>
      <point x="23" y="29" type="line"/>
    </contour>
  </outline>
</glyph>
<glyph name="logicalor" format="1">
  <advance width="603"/>
  <unicode hex="2228"/>
  <outline>
    <contour>
      <point x="303" y="-1" type="line"/>
      <point x="30" y="443" type="line"/>
      <point x="76" y="475" type="line"/>
      <point x="304" y="106" type="line"/>
      <point x="532" y="476" type="line"/>
      <point x="578" y="446" type="line"/>
    </contour>
  </outline>
</glyph>
<glyph name="intersection" format="1">
  <advance width="768"/>
  <unicode hex="2229"/>
  <outline>
    <contour>
      <point x="732" y="0" type="line"/>
      <point x="675" y="0" type="line"/>
      <point x="675" y="184" type="line" smooth="yes"/>
      <point x="675" y="262"/>
      <point x="659" y="309"/>
      <point x="613" y="358" type="curve" smooth="yes"/>
      <point x="560" y="416"/>
      <point x="475" y="450"/>
      <point x="386" y="450" type="curve" smooth="yes"/>
      <point x="223" y="450"/>
      <point x="98" y="343"/>
      <point x="98" y="203" type="curve" smooth="yes"/>
      <point x="97" y="0" type="line"/>
      <point x="40" y="0" type="line"/>
      <point x="40" y="194" type="line" smooth="yes"/>
      <point x="40" y="375"/>
      <point x="185" y="507"/>
      <point x="386" y="507" type="curve" smooth="yes"/>
      <point x="504" y="507"/>
      <point x="604" y="462"/>
      <point x="669" y="380" type="curve" smooth="yes"/>
      <point x="713" y="325"/>
      <point x="731" y="265"/>
      <point x="732" y="176" type="curve"/>
    </contour>
  </outline>
</glyph>
<glyph name="therefore" format="1">
  <advance width="863"/>
  <unicode hex="2234"/>
  <outline>
    <contour>
      <point x="226" y="112" type="curve" smooth="yes"/>
      <point x="259" y="112"/>
      <point x="287" y="83"/>
      <point x="287" y="50" type="curve" smooth="yes"/>
      <point x="287" y="15"/>
      <point x="259" y="-13"/>
      <point x="225" y="-13" type="curve" smooth="yes"/>
      <point x="191" y="-13"/>
      <point x="163" y="15"/>
      <point x="163" y="50" type="curve" smooth="yes"/>
      <point x="163" y="84"/>
      <point x="191" y="112"/>
    </contour>
    <contour>
      <point x="430" y="433" type="curve" smooth="yes"/>
      <point x="463" y="433"/>
      <point x="491" y="404"/>
      <point x="491" y="371" type="curve" smooth="yes"/>
      <point x="491" y="336"/>
      <point x="463" y="308"/>
      <point x="429" y="308" type="curve" smooth="yes"/>
      <point x="395" y="308"/>
      <point x="367" y="336"/>
      <point x="367" y="371" type="curve" smooth="yes"/>
      <point x="367" y="405"/>
      <point x="395" y="433"/>
    </contour>
    <contour>
      <point x="640" y="112" type="curve" smooth="yes"/>
      <point x="673" y="112"/>
      <point x="701" y="83"/>
      <point x="701" y="50" type="curve" smooth="yes"/>
      <point x="701" y="15"/>
      <point x="673" y="-13"/>
      <point x="639" y="-13" type="curve" smooth="yes"/>
      <point x="605" y="-13"/>
      <point x="577" y="15"/>
      <point x="577" y="50" type="curve" smooth="yes"/>
      <point x="577" y="84"/>
      <point x="605" y="112"/>
    </contour>
  </outline>
</glyph>
<glyph name="similar" format="1">
  <advance width="549"/>
  <unicode hex="223C"/>
  <outline>
    <contour>
      <point x="489" y="325" type="curve"/>
      <point x="529" y="292" type="line"/>
      <point x="498" y="235"/>
      <point x="450" y="206"/>
      <point x="385" y="206" type="curve" smooth="yes"/>
      <point x="364" y="206"/>
      <point x="342" y="209"/>
      <point x="320" y="216" type="curve" smooth="yes"/>
      <point x="271" y="232"/>
      <point x="271" y="232"/>
      <point x="223" y="246" type="curve" smooth="yes"/>
      <point x="187" y="257"/>
      <point x="177" y="259"/>
      <point x="159" y="259" type="curve" smooth="yes"/>
      <point x="121" y="259"/>
      <point x="105" y="249"/>
      <point x="60" y="196" type="curve"/>
      <point x="17" y="229" type="line"/>
      <point x="56" y="286"/>
      <point x="103" y="314"/>
      <point x="160" y="314" type="curve" smooth="yes"/>
      <point x="188" y="314"/>
      <point x="212" y="309"/>
      <point x="285" y="286" type="curve" smooth="yes"/>
      <point x="353" y="264"/>
      <point x="366" y="261"/>
      <point x="384" y="261" type="curve" smooth="yes"/>
      <point x="423" y="261"/>
      <point x="444" y="273"/>
    </contour>
  </outline>
</glyph>
<glyph name="congruent" format="1">
  <advance width="549"/>
  <unicode hex="2245"/>
  <outline>
    <contour>
      <point x="537" y="245" type="line"/>
      <point x="537" y="190" type="line"/>
      <point x="11" y="190" type="line"/>
      <point x="11" y="245" type="line"/>
    </contour>
    <contour>
      <point x="537" y="55" type="line"/>
      <point x="537" y="0" type="line"/>
      <point x="11" y="0" type="line"/>
      <point x="11" y="55" type="line"/>
    </contour>
    <contour>
      <point x="489" y="475" type="curve"/>
      <point x="529" y="442" type="line"/>
      <point x="498" y="385"/>
      <point x="450" y="356"/>
      <point x="385" y="356" type="curve" smooth="yes"/>
      <point x="364" y="356"/>
      <point x="341" y="359"/>
      <point x="320" y="366" type="curve" smooth="yes"/>
      <point x="287" y="376"/>
      <point x="255" y="386"/>
      <point x="223" y="396" type="curve" smooth="yes"/>
      <point x="188" y="406"/>
      <point x="177" y="408"/>
      <point x="159" y="408" type="curve" smooth="yes"/>
      <point x="121" y="408"/>
      <point x="105" y="398"/>
      <point x="60" y="345" type="curve"/>
      <point x="17" y="379" type="line"/>
      <point x="56" y="436"/>
      <point x="103" y="463"/>
      <point x="160" y="463" type="curve" smooth="yes"/>
      <point x="188" y="463"/>
      <point x="212" y="458"/>
      <point x="285" y="435" type="curve" smooth="yes"/>
      <point x="351" y="415"/>
      <point x="366" y="411"/>
      <point x="384" y="411" type="curve" smooth="yes"/>
      <point x="423" y="411"/>
      <point x="443" y="423"/>
    </contour>
  </outline>
</glyph>
<glyph name="approxequal" format="1">
  <advance width="549"/>
  <unicode hex="2248"/>
  <outline>
    <contour>
      <point x="489" y="251" type="curve"/>
      <point x="527" y="217" type="line"/>
      <point x="496" y="161"/>
      <point x="449" y="132"/>
      <point x="385" y="132" type="curve" smooth="yes"/>
      <point x="364" y="132"/>
      <point x="341" y="135"/>
      <point x="320" y="142" type="curve" smooth="yes"/>
      <point x="287" y="152"/>
      <point x="255" y="162"/>
      <point x="223" y="172" type="curve" smooth="yes"/>
      <point x="188" y="182"/>
      <point x="177" y="184"/>
      <point x="159" y="184" type="curve" smooth="yes"/>
      <point x="120" y="184"/>
      <point x="103" y="174"/>
      <point x="57" y="121" type="curve"/>
      <point x="14" y="155" type="line"/>
      <point x="54" y="212"/>
      <point x="101" y="239"/>
      <point x="160" y="239" type="curve" smooth="yes"/>
      <point x="188" y="239"/>
      <point x="212" y="234"/>
      <point x="285" y="211" type="curve"/>
      <point x="352" y="191"/>
      <point x="366" y="187"/>
      <point x="384" y="187" type="curve" smooth="yes"/>
      <point x="423" y="187"/>
      <point x="444" y="199"/>
    </contour>
    <contour>
      <point x="489" y="408" type="curve"/>
      <point x="527" y="375" type="line"/>
      <point x="496" y="318"/>
      <point x="449" y="289"/>
      <point x="385" y="289" type="curve" smooth="yes"/>
      <point x="364" y="289"/>
      <point x="341" y="292"/>
      <point x="320" y="299" type="curve" smooth="yes"/>
      <point x="287" y="309"/>
      <point x="255" y="319"/>
      <point x="223" y="329" type="curve" smooth="yes"/>
      <point x="188" y="339"/>
      <point x="177" y="341"/>
      <point x="159" y="341" type="curve" smooth="yes"/>
      <point x="120" y="341"/>
      <point x="103" y="331"/>
      <point x="57" y="278" type="curve"/>
      <point x="14" y="312" type="line"/>
      <point x="54" y="369"/>
      <point x="101" y="396"/>
      <point x="160" y="396" type="curve" smooth="yes"/>
      <point x="188" y="396"/>
      <point x="212" y="391"/>
      <point x="285" y="368" type="curve"/>
      <point x="352" y="348"/>
      <point x="366" y="344"/>
      <point x="384" y="344" type="curve" smooth="yes"/>
      <point x="423" y="344"/>
      <point x="443" y="356"/>
    </contour>
  </outline>
</glyph>
<glyph name="notequal" format="1">
  <advance width="549"/>
  <unicode hex="2260"/>
  <outline>
    <contour>
      <point x="187" y="142" type="line"/>
      <point x="15" y="142" type="line"/>
      <point x="15" y="197" type="line"/>
      <point x="215" y="197" type="line"/>
      <point x="285" y="336" type="line"/>
      <point x="15" y="336" type="line"/>
      <point x="15" y="391" type="line"/>
      <point x="312" y="391" type="line"/>
      <point x="392" y="549" type="line"/>
      <point x="439" y="525" type="line"/>
      <point x="371" y="391" type="line"/>
      <point x="540" y="391" type="line"/>
      <point x="540" y="336" type="line"/>
      <point x="344" y="336" type="line"/>
      <point x="273" y="197" type="line"/>
      <point x="540" y="197" type="line"/>
      <point x="540" y="142" type="line"/>
      <point x="246" y="142" type="line"/>
      <point x="161" y="-25" type="line"/>
      <point x="115" y="-1" type="line"/>
    </contour>
  </outline>
</glyph>
<glyph name="equivalence" format="1">
  <advance width="549"/>
  <unicode hex="2261"/>
  <outline>
    <contour>
      <point x="538" y="294" type="line"/>
      <point x="538" y="239" type="line"/>
      <point x="14" y="239" type="line"/>
      <point x="14" y="294" type="line"/>
    </contour>
    <contour>
      <point x="538" y="142" type="line"/>
      <point x="538" y="87" type="line"/>
      <point x="14" y="87" type="line"/>
      <point x="14" y="142" type="line"/>
    </contour>
    <contour>
      <point x="538" y="446" type="line"/>
      <point x="538" y="391" type="line"/>
      <point x="14" y="391" type="line"/>
      <point x="14" y="446" type="line"/>
    </contour>
  </outline>
</glyph>
<glyph name="lessequal" format="1">
  <advance width="549"/>
  <unicode hex="2264"/>
  <outline>
    <contour>
      <point x="526" y="55" type="line"/>
      <point x="526" y="0" type="line"/>
      <point x="29" y="0" type="line"/>
      <point x="29" y="55" type="line"/>
    </contour>
    <contour>
      <point x="526" y="639" type="line"/>
      <point x="526" y="577" type="line"/>
      <point x="108" y="378" type="line"/>
      <point x="526" y="179" type="line"/>
      <point x="526" y="117" type="line"/>
      <point x="29" y="350" type="line"/>
      <point x="29" y="405" type="line"/>
    </contour>
  </outline>
</glyph>
<glyph name="greaterequal" format="1">
  <advance width="549"/>
  <unicode hex="2265"/>
  <outline>
    <contour>
      <point x="526" y="55" type="line"/>
      <point x="526" y="0" type="line"/>
      <point x="29" y="0" type="line"/>
      <point x="29" y="55" type="line"/>
    </contour>
    <contour>
      <point x="29" y="639" type="line"/>
      <point x="526" y="405" type="line"/>
      <point x="526" y="350" type="line"/>
      <point x="29" y="117" type="line"/>
      <point x="29" y="179" type="line"/>
      <point x="447" y="378" type="line"/>
      <point x="29" y="577" type="line"/>
    </contour>
  </outline>
</glyph>
<glyph name="notsubset" format="1">
  <advance width="713"/>
  <unicode hex="2284"/>
  <outline>
    <contour>
      <point x="538" y="470" type="line"/>
      <point x="690" y="470" type="line"/>
      <point x="690" y="414" type="line"/>
      <point x="513" y="414" type="line"/>
      <point x="349" y="56" type="line"/>
      <point x="690" y="56" type="line"/>
      <point x="690" y="0" type="line"/>
      <point x="323" y="0" type="line"/>
      <point x="291" y="-70" type="line"/>
      <point x="241" y="-70" type="line"/>
      <point x="274" y="1" type="line"/>
      <point x="207" y="5"/>
      <point x="167" y="17"/>
      <point x="130" y="45" type="curve" smooth="yes"/>
      <point x="71" y="90"/>
      <point x="36" y="161"/>
      <point x="36" y="235" type="curve" smooth="yes"/>
      <point x="36" y="316"/>
      <point x="78" y="392"/>
      <point x="145" y="436" type="curve"/>
      <point x="175" y="454"/>
      <point x="214" y="465"/>
      <point x="266" y="468" type="curve"/>
      <point x="283" y="470"/>
      <point x="315" y="470"/>
      <point x="384" y="470" type="curve" smooth="yes"/>
      <point x="488" y="470" type="line"/>
      <point x="520" y="540" type="line"/>
      <point x="570" y="540" type="line"/>
    </contour>
    <contour>
      <point x="299" y="57" type="curve"/>
      <point x="463" y="414" type="line"/>
      <point x="382" y="414" type="line" smooth="yes"/>
      <point x="285" y="414"/>
      <point x="267" y="413"/>
      <point x="235" y="408" type="curve" smooth="yes"/>
      <point x="185" y="399"/>
      <point x="153" y="380"/>
      <point x="126" y="343" type="curve" smooth="yes"/>
      <point x="103" y="313"/>
      <point x="91" y="274"/>
      <point x="91" y="235" type="curve" smooth="yes"/>
      <point x="91" y="173"/>
      <point x="122" y="116"/>
      <point x="171" y="84" type="curve"/>
      <point x="199" y="67"/>
      <point x="243" y="58"/>
    </contour>
  </outline>
</glyph>
<glyph name="circlemultiply" format="1">
  <advance width="768"/>
  <unicode hex="2297"/>
  <outline>
    <contour>
      <point x="205" y="490" type="line"/>
      <point x="244" y="529" type="line"/>
      <point x="388" y="388" type="line"/>
      <point x="529" y="529" type="line"/>
      <point x="567" y="490" type="line"/>
      <point x="426" y="349" type="line"/>
      <point x="567" y="205" type="line"/>
      <point x="529" y="167" type="line"/>
      <point x="388" y="311" type="line"/>
      <point x="244" y="167" type="line"/>
      <point x="205" y="205" type="line"/>
      <point x="349" y="349" type="line"/>
    </contour>
    <contour>
      <point x="391" y="691" type="curve" smooth="yes"/>
      <point x="577" y="691"/>
      <point x="733" y="532"/>
      <point x="733" y="344" type="curve" smooth="yes"/>
      <point x="733" y="157"/>
      <point x="576" y="0"/>
      <point x="387" y="0" type="curve" smooth="yes"/>
      <point x="199" y="0"/>
      <point x="43" y="156"/>
      <point x="43" y="345" type="curve" smooth="yes"/>
      <point x="43" y="536"/>
      <point x="199" y="691"/>
    </contour>
    <contour>
      <point x="391" y="633" type="curve" smooth="yes"/>
      <point x="228" y="633"/>
      <point x="99" y="506"/>
      <point x="99" y="344" type="curve" smooth="yes"/>
      <point x="99" y="186"/>
      <point x="229" y="58"/>
      <point x="388" y="58" type="curve" smooth="yes"/>
      <point x="548" y="58"/>
      <point x="678" y="187"/>
      <point x="678" y="346" type="curve" smooth="yes"/>
      <point x="678" y="503"/>
      <point x="548" y="633"/>
    </contour>
  </outline>
</glyph>
<glyph name="perpendicular" format="1">
  <advance width="658"/>
  <unicode hex="22A5"/>
  <outline>
    <contour>
      <point x="361" y="673" type="line"/>
      <point x="361" y="56" type="line"/>
      <point x="652" y="56" type="line"/>
      <point x="652" y="0" type="line"/>
      <point x="15" y="0" type="line"/>
      <point x="15" y="56" type="line"/>
      <point x="306" y="56" type="line"/>
      <point x="306" y="673" type="line"/>
    </contour>
  </outline>
</glyph>
<glyph name="integraltp" format="1">
  <advance width="686"/>
  <unicode hex="2320"/>
  <outline>
    <contour>
      <point x="332" y="-83" type="line"/>
      <point x="332" y="333" type="line" smooth="yes"/>
      <point x="332" y="527"/>
      <point x="370" y="676"/>
      <point x="448" y="790" type="curve" smooth="yes"/>
      <point x="506" y="874"/>
      <point x="572" y="922"/>
      <point x="631" y="922" type="curve" smooth="yes"/>
      <point x="679" y="922"/>
      <point x="715" y="888"/>
      <point x="715" y="842" type="curve" smooth="yes"/>
      <point x="715" y="801"/>
      <point x="687" y="771"/>
      <point x="649" y="771" type="curve" smooth="yes"/>
      <point x="615" y="771"/>
      <point x="588" y="795"/>
      <point x="588" y="825" type="curve" smooth="yes"/>
      <point x="588" y="842"/>
      <point x="594" y="853"/>
      <point x="609" y="866" type="curve"/>
      <point x="602" y="868"/>
      <point x="598" y="869"/>
      <point x="594" y="869" type="curve" smooth="yes"/>
      <point x="563" y="869"/>
      <point x="528" y="842"/>
      <point x="498" y="796" type="curve" smooth="yes"/>
      <point x="447" y="717"/>
      <point x="415" y="559"/>
      <point x="415" y="385" type="curve" smooth="yes"/>
      <point x="415" y="-83" type="line"/>
    </contour>
  </outline>
</glyph>
<glyph name="integralbt" format="1">
  <advance width="686"/>
  <unicode hex="2321"/>
  <outline>
    <contour>
      <point x="415" y="921" type="line"/>
      <point x="415" y="508" type="line" smooth="yes"/>
      <point x="415" y="314"/>
      <point x="377" y="165"/>
      <point x="299" y="51" type="curve" smooth="yes"/>
      <point x="241" y="-33"/>
      <point x="175" y="-81"/>
      <point x="117" y="-81" type="curve" smooth="yes"/>
      <point x="72" y="-81"/>
      <point x="39" y="-47"/>
      <point x="39" y="-1" type="curve" smooth="yes"/>
      <point x="39" y="40"/>
      <point x="64" y="70"/>
      <point x="98" y="70" type="curve" smooth="yes"/>
      <point x="132" y="70"/>
      <point x="159" y="46"/>
      <point x="159" y="16" type="curve" smooth="yes"/>
      <point x="159" y="-1"/>
      <point x="153" y="-12"/>
      <point x="138" y="-25" type="curve"/>
      <point x="145" y="-27"/>
      <point x="149" y="-28"/>
      <point x="153" y="-28" type="curve" smooth="yes"/>
      <point x="184" y="-28"/>
      <point x="219" y="-1"/>
      <point x="249" y="45" type="curve" smooth="yes"/>
      <point x="300" y="124"/>
      <point x="332" y="282"/>
      <point x="332" y="456" type="curve" smooth="yes"/>
      <point x="332" y="921" type="line"/>
    </contour>
  </outline>
</glyph>
<glyph name="arrowhorizex" format="1">
  <advance width="1000"/>
  <outline>
    <contour>
      <point x="-60" y="220" type="line"/>
      <point x="-60" y="276" type="line"/>
      <point x="1050" y="276" type="line"/>
      <point x="1050" y="220" type="line"/>
    </contour>
  </outline>
</glyph>
<glyph name="arrowvertex" format="1">
  <advance width="603"/>
  <outline>
    <contour>
      <point x="336" y="1010" type="line"/>
      <point x="336" y="-120" type="line"/>
      <point x="280" y="-120" type="line"/>
      <point x="280" y="1010" type="line"/>
    </contour>
  </outline>
</glyph>
<glyph name="braceex" format="1">
  <advance width="494"/>
  <outline>
    <contour>
      <point x="201" y="925" type="line"/>
      <point x="255" y="925" type="line"/>
      <point x="255" y="-79" type="line"/>
      <point x="201" y="-79" type="line"/>
    </contour>
  </outline>
</glyph>
<glyph name="braceleftbt" format="1">
  <advance width="494"/>
  <outline>
    <contour>
      <point x="255" y="926" type="line"/>
      <point x="255" y="237" type="line" smooth="yes"/>
      <point x="255" y="116"/>
      <point x="272" y="59"/>
      <point x="320" y="13" type="curve"/>
      <point x="352" y="-16"/>
      <point x="389" y="-35"/>
      <point x="439" y="-48" type="curve"/>
      <point x="439" y="-70" type="line"/>
      <point x="369" y="-58"/>
      <point x="339" y="-49"/>
      <point x="302" y="-26" type="curve" smooth="yes"/>
      <point x="229" y="19"/>
      <point x="201" y="88"/>
      <point x="201" y="219" type="curve" smooth="yes"/>
      <point x="201" y="926" type="line"/>
    </contour>
  </outline>
</glyph>
<glyph name="braceleftmid" format="1">
  <advance width="494"/>
  <outline>
    <contour>
      <point x="255" y="935" type="line"/>
      <point x="255" y="674" type="line" smooth="yes"/>
      <point x="255" y="587"/>
      <point x="239" y="537"/>
      <point x="197" y="494" type="curve" smooth="yes"/>
      <point x="169" y="464"/>
      <point x="138" y="448"/>
      <point x="74" y="431" type="curve"/>
      <point x="145" y="410"/>
      <point x="178" y="392"/>
      <point x="207" y="356" type="curve" smooth="yes"/>
      <point x="242" y="313"/>
      <point x="255" y="268"/>
      <point x="255" y="187" type="curve" smooth="yes"/>
      <point x="255" y="-85" type="line"/>
      <point x="201" y="-85" type="line"/>
      <point x="201" y="166" type="line" smooth="yes"/>
      <point x="201" y="261"/>
      <point x="185" y="311"/>
      <point x="142" y="348" type="curve" smooth="yes"/>
      <point x="109" y="377"/>
      <point x="75" y="391"/>
      <point x="14" y="400" type="curve"/>
      <point x="14" y="461" type="line"/>
      <point x="80" y="471"/>
      <point x="119" y="488"/>
      <point x="153" y="523" type="curve" smooth="yes"/>
      <point x="187" y="559"/>
      <point x="201" y="608"/>
      <point x="201" y="695" type="curve" smooth="yes"/>
      <point x="201" y="935" type="line"/>
    </contour>
  </outline>
</glyph>
<glyph name="bracelefttp" format="1">
  <advance width="494"/>
  <outline>
    <contour>
      <point x="255" y="-75" type="line"/>
      <point x="201" y="-75" type="line"/>
      <point x="201" y="637" type="line" smooth="yes"/>
      <point x="201" y="768"/>
      <point x="229" y="837"/>
      <point x="302" y="882" type="curve" smooth="yes"/>
      <point x="339" y="905"/>
      <point x="369" y="914"/>
      <point x="439" y="926" type="curve"/>
      <point x="439" y="904" type="line"/>
      <point x="384" y="890"/>
      <point x="344" y="868"/>
      <point x="311" y="834" type="curve" smooth="yes"/>
      <point x="270" y="790"/>
      <point x="255" y="732"/>
      <point x="255" y="619" type="curve" smooth="yes"/>
    </contour>
  </outline>
</glyph>
<glyph name="bracerightmid" format="1">
  <advance width="494"/>
  <outline>
    <contour>
      <point x="201" y="935" type="line"/>
      <point x="255" y="935" type="line"/>
      <point x="255" y="695" type="line" smooth="yes"/>
      <point x="255" y="595"/>
      <point x="269" y="551"/>
      <point x="313" y="513" type="curve" smooth="yes"/>
      <point x="347" y="483"/>
      <point x="381" y="470"/>
      <point x="442" y="461" type="curve"/>
      <point x="442" y="400" type="line"/>
      <point x="375" y="390"/>
      <point x="336" y="373"/>
      <point x="303" y="338" type="curve" smooth="yes"/>
      <point x="267" y="301"/>
      <point x="255" y="258"/>
      <point x="255" y="166" type="curve" smooth="yes"/>
      <point x="255" y="-85" type="line"/>
      <point x="201" y="-85" type="line"/>
      <point x="201" y="187" type="line" smooth="yes"/>
      <point x="201" y="273"/>
      <point x="217" y="324"/>
      <point x="259" y="367" type="curve" smooth="yes"/>
      <point x="288" y="396"/>
      <point x="319" y="412"/>
      <point x="383" y="431" type="curve"/>
      <point x="313" y="450"/>
      <point x="279" y="469"/>
      <point x="250" y="505" type="curve" smooth="yes"/>
      <point x="214" y="548"/>
      <point x="201" y="594"/>
      <point x="201" y="674" type="curve" smooth="yes"/>
    </contour>
  </outline>
</glyph>
<glyph name="bracketleftbt" format="1">
  <advance width="384"/>
  <outline>
    <contour>
      <point x="0" y="926" type="line"/>
      <point x="55" y="926" type="line"/>
      <point x="55" y="-25" type="line"/>
      <point x="340" y="-25" type="line"/>
      <point x="340" y="-80" type="line"/>
      <point x="0" y="-80" type="line"/>
    </contour>
  </outline>
</glyph>
<glyph name="bracketleftex" format="1">
  <advance width="384"/>
  <outline>
    <contour>
      <point x="0" y="925" type="line"/>
      <point x="55" y="925" type="line"/>
      <point x="55" y="-85" type="line"/>
      <point x="0" y="-85" type="line"/>
    </contour>
  </outline>
</glyph>
<glyph name="bracketlefttp" format="1">
  <advance width="384"/>
  <outline>
    <contour>
      <point x="0" y="-80" type="line"/>
      <point x="0" y="926" type="line"/>
      <point x="341" y="926" type="line"/>
      <point x="341" y="871" type="line"/>
      <point x="55" y="871" type="line"/>
      <point x="55" y="-80" type="line"/>
    </contour>
  </outline>
</glyph>
<glyph name="bracketrightbt" format="1">
  <advance width="384"/>
  <outline>
    <contour>
      <point x="360" y="926" type="line"/>
      <point x="360" y="-80" type="line"/>
      <point x="20" y="-80" type="line"/>
      <point x="20" y="-25" type="line"/>
      <point x="305" y="-25" type="line"/>
      <point x="305" y="926" type="line"/>
    </contour>
  </outline>
</glyph>
<glyph name="bracketrightex" format="1">
  <advance width="384"/>
  <outline>
    <contour>
      <point x="305" y="925" type="line"/>
      <point x="360" y="925" type="line"/>
      <point x="360" y="-85" type="line"/>
      <point x="305" y="-85" type="line"/>
    </contour>
  </outline>
</glyph>
<glyph name="copyrightserif" format="1">
  <advance width="790"/>
  <outline>
    <contour>
      <point x="558" y="403" type="line"/>
      <point x="536" y="403" type="line"/>
      <point x="519" y="472"/>
      <point x="476" y="508"/>
      <point x="411" y="508" type="curve" smooth="yes"/>
      <point x="327" y="508"/>
      <point x="276" y="444"/>
      <point x="276" y="339" type="curve" smooth="yes"/>
      <point x="276" y="235"/>
      <point x="329" y="171"/>
      <point x="415" y="171" type="curve" smooth="yes"/>
      <point x="468" y="171"/>
      <point x="504" y="186"/>
      <point x="551" y="229" type="curve"/>
      <point x="566" y="213" type="line"/>
      <point x="518" y="161"/>
      <point x="468" y="138"/>
      <point x="404" y="138" type="curve" smooth="yes"/>
      <point x="282" y="138"/>
      <point x="200" y="218"/>
      <point x="200" y="335" type="curve" smooth="yes"/>
      <point x="200" y="455"/>
      <point x="285" y="539"/>
      <point x="406" y="539" type="curve" smooth="yes"/>
      <point x="435" y="539"/>
      <point x="462" y="534"/>
      <point x="491" y="523" type="curve" smooth="yes"/>
      <point x="498" y="520"/>
      <point x="507" y="518"/>
      <point x="511" y="518" type="curve" smooth="yes"/>
      <point x="522" y="518"/>
      <point x="525" y="521"/>
      <point x="533" y="539" type="curve"/>
      <point x="553" y="539" type="line"/>
    </contour>
    <contour>
      <point x="395" y="690" type="curve" smooth="yes"/>
      <point x="589" y="690"/>
      <point x="741" y="533"/>
      <point x="741" y="334" type="curve" smooth="yes"/>
      <point x="741" y="145"/>
      <point x="584" y="-13"/>
      <point x="396" y="-13" type="curve" smooth="yes"/>
      <point x="206" y="-13"/>
      <point x="51" y="145"/>
      <point x="51" y="339" type="curve" smooth="yes"/>
      <point x="51" y="532"/>
      <point x="206" y="690"/>
    </contour>
    <contour>
      <point x="395" y="645" type="curve" smooth="yes"/>
      <point x="234" y="645"/>
      <point x="102" y="507"/>
      <point x="102" y="338" type="curve" smooth="yes"/>
      <point x="102" y="170"/>
      <point x="234" y="32"/>
      <point x="396" y="32" type="curve" smooth="yes"/>
      <point x="556" y="32"/>
      <point x="690" y="169"/>
      <point x="690" y="335" type="curve" smooth="yes"/>
      <point x="690" y="508"/>
      <point x="560" y="645"/>
    </contour>
  </outline>
</glyph>
<glyph name="integralex" format="1">
  <advance width="686"/>
  <outline>
    <contour>
      <point x="332" y="-88" type="line"/>
      <point x="332" y="975" type="line"/>
      <point x="415" y="975" type="line"/>
      <point x="415" y="-88" type="line"/>
    </contour>
  </outline>
</glyph>
<glyph name="parenleftbt" format="1">
  <advance width="384"/>
  <outline>
    <contour>
      <point x="40" y="926" type="line"/>
      <point x="92" y="926" type="line"/>
      <point x="92" y="495" type="line" smooth="yes"/>
      <point x="92" y="261"/>
      <point x="154" y="36"/>
      <point x="258" y="-111" type="curve" smooth="yes"/>
      <point x="305" y="-177"/>
      <point x="357" y="-228"/>
      <point x="436" y="-282" type="curve"/>
      <point x="422" y="-293" type="line"/>
      <point x="312" y="-232"/>
      <point x="258" y="-187"/>
      <point x="204" y="-113" type="curve" smooth="yes"/>
      <point x="100" y="30"/>
      <point x="40" y="242"/>
      <point x="40" y="465" type="curve" smooth="yes"/>
    </contour>
  </outline>
</glyph>
<glyph name="parenleftex" format="1">
  <advance width="384"/>
  <outline>
    <contour>
      <point x="40" y="-79" type="line"/>
      <point x="40" y="925" type="line"/>
      <point x="92" y="925" type="line"/>
      <point x="92" y="-79" type="line"/>
    </contour>
  </outline>
</glyph>
<glyph name="parenlefttp" format="1">
  <advance width="384"/>
  <outline>
    <contour>
      <point x="40" y="-293" type="line"/>
      <point x="40" y="168" type="line" smooth="yes"/>
      <point x="40" y="409"/>
      <point x="110" y="636"/>
      <point x="228" y="776" type="curve" smooth="yes"/>
      <point x="278" y="835"/>
      <point x="330" y="876"/>
      <point x="422" y="926" type="curve"/>
      <point x="436" y="915" type="line"/>
      <point x="369" y="874"/>
      <point x="302" y="805"/>
      <point x="243" y="717" type="curve" smooth="yes"/>
      <point x="153" y="581"/>
      <point x="92" y="348"/>
      <point x="92" y="138" type="curve" smooth="yes"/>
      <point x="92" y="-293" type="line"/>
    </contour>
  </outline>
</glyph>
<glyph name="parenrightbt" format="1">
  <advance width="384"/>
  <outline>
    <contour>
      <point x="450" y="926" type="line"/>
      <point x="450" y="465" type="line" smooth="yes"/>
      <point x="450" y="224"/>
      <point x="380" y="-3"/>
      <point x="262" y="-143" type="curve" smooth="yes"/>
      <point x="211" y="-203"/>
      <point x="156" y="-246"/>
      <point x="68" y="-293" type="curve"/>
      <point x="54" y="-282" type="line"/>
      <point x="124" y="-239"/>
      <point x="190" y="-172"/>
      <point x="248" y="-85" type="curve" smooth="yes"/>
      <point x="341" y="54"/>
      <point x="398" y="273"/>
      <point x="398" y="495" type="curve" smooth="yes"/>
      <point x="398" y="926" type="line"/>
    </contour>
  </outline>
</glyph>
<glyph name="parenrightex" format="1">
  <advance width="384"/>
  <outline>
    <contour>
      <point x="450" y="935" type="line"/>
      <point x="450" y="-70" type="line"/>
      <point x="398" y="-70" type="line"/>
      <point x="398" y="935" type="line"/>
    </contour>
  </outline>
</glyph>
<glyph name="radicalex" format="1">
  <advance width="500"/>
  <outline>
    <contour>
      <point x="480" y="913" type="line"/>
      <point x="1090" y="913" type="line"/>
      <point x="1090" y="857" type="line"/>
      <point x="480" y="857" type="line"/>
    </contour>
  </outline>
</glyph>
<glyph name="registersans" format="1">
  <advance width="790"/>
  <outline>
    <contour>
      <point x="249" y="527" type="line"/>
      <point x="409" y="527" type="line" smooth="yes"/>
      <point x="450" y="527"/>
      <point x="477" y="522"/>
      <point x="498" y="508" type="curve"/>
      <point x="530" y="490"/>
      <point x="547" y="458"/>
      <point x="547" y="420" type="curve" smooth="yes"/>
      <point x="547" y="376"/>
      <point x="524" y="344"/>
      <point x="479" y="325" type="curve"/>
      <point x="529" y="307"/>
      <point x="541" y="284"/>
      <point x="543" y="200" type="curve"/>
      <point x="545" y="161"/>
      <point x="547" y="149"/>
      <point x="553" y="137" type="curve"/>
      <point x="503" y="137" type="line"/>
      <point x="497" y="147"/>
      <point x="495" y="161"/>
      <point x="493" y="212" type="curve"/>
      <point x="488" y="289"/>
      <point x="470" y="305"/>
      <point x="387" y="305" type="curve" smooth="yes"/>
      <point x="300" y="305" type="line"/>
      <point x="300" y="137" type="line"/>
      <point x="249" y="137" type="line"/>
    </contour>
    <contour>
      <point x="300" y="486" type="line"/>
      <point x="300" y="344" type="line"/>
      <point x="391" y="344" type="line" smooth="yes"/>
      <point x="463" y="344"/>
      <point x="497" y="367"/>
      <point x="497" y="416" type="curve" smooth="yes"/>
      <point x="497" y="463"/>
      <point x="465" y="486"/>
      <point x="398" y="486" type="curve" smooth="yes"/>
    </contour>
    <contour>
      <point x="400" y="679" type="curve" smooth="yes"/>
      <point x="586" y="679"/>
      <point x="740" y="522"/>
      <point x="740" y="333" type="curve" smooth="yes"/>
      <point x="740" y="143"/>
      <point x="585" y="-12"/>
      <point x="395" y="-12" type="curve" smooth="yes"/>
      <point x="205" y="-12"/>
      <point x="50" y="143"/>
      <point x="50" y="333" type="curve" smooth="yes"/>
      <point x="50" y="526"/>
      <point x="204" y="679"/>
    </contour>
    <contour>
      <point x="399" y="641" type="curve" smooth="yes"/>
      <point x="227" y="641"/>
      <point x="92" y="505"/>
      <point x="92" y="333" type="curve" smooth="yes"/>
      <point x="92" y="164"/>
      <point x="229" y="26"/>
      <point x="395" y="26" type="curve" smooth="yes"/>
      <point x="562" y="26"/>
      <point x="698" y="164"/>
      <point x="698" y="333" type="curve" smooth="yes"/>
      <point x="698" y="501"/>
      <point x="562" y="641"/>
    </contour>
  </outline>
</glyph>
<glyph name="registerserif" format="1">
  <advance width="790"/>
  <outline>
    <contour>
      <point x="502" y="158" type="line"/>
      <point x="362" y="333" type="line"/>
      <point x="336" y="333" type="line"/>
      <point x="336" y="224" type="line" smooth="yes"/>
      <point x="336" y="186"/>
      <point x="343" y="179"/>
      <point x="388" y="176" type="curve"/>
      <point x="388" y="158" type="line"/>
      <point x="214" y="158" type="line"/>
      <point x="214" y="176" type="line"/>
      <point x="260" y="179"/>
      <point x="267" y="186"/>
      <point x="267" y="224" type="curve" smooth="yes"/>
      <point x="267" y="479" type="line" smooth="yes"/>
      <point x="267" y="516"/>
      <point x="260" y="523"/>
      <point x="214" y="526" type="curve"/>
      <point x="214" y="544" type="line"/>
      <point x="372" y="544" type="line" smooth="yes"/>
      <point x="426" y="544"/>
      <point x="452" y="540"/>
      <point x="477" y="529" type="curve" smooth="yes"/>
      <point x="515" y="512"/>
      <point x="536" y="480"/>
      <point x="536" y="440" type="curve" smooth="yes"/>
      <point x="536" y="388"/>
      <point x="497" y="350"/>
      <point x="434" y="341" type="curve"/>
      <point x="539" y="214" type="line" smooth="yes"/>
      <point x="564" y="185"/>
      <point x="575" y="178"/>
      <point x="601" y="176" type="curve"/>
      <point x="601" y="158" type="line"/>
    </contour>
    <contour>
      <point x="336" y="492" type="curve" smooth="yes"/>
      <point x="336" y="362" type="line"/>
      <point x="343" y="361"/>
      <point x="348" y="361"/>
      <point x="352" y="361" type="curve" smooth="yes"/>
      <point x="431" y="361"/>
      <point x="464" y="384"/>
      <point x="464" y="439" type="curve" smooth="yes"/>
      <point x="464" y="490"/>
      <point x="435" y="514"/>
      <point x="373" y="514" type="curve" smooth="yes"/>
      <point x="338" y="514"/>
      <point x="336" y="513"/>
    </contour>
    <contour>
      <point x="394" y="690" type="curve" smooth="yes"/>
      <point x="588" y="690"/>
      <point x="740" y="533"/>
      <point x="740" y="334" type="curve" smooth="yes"/>
      <point x="740" y="145"/>
      <point x="583" y="-13"/>
      <point x="395" y="-13" type="curve" smooth="yes"/>
      <point x="205" y="-13"/>
      <point x="50" y="145"/>
      <point x="50" y="339" type="curve" smooth="yes"/>
      <point x="50" y="532"/>
      <point x="205" y="690"/>
    </contour>
    <contour>
      <point x="394" y="645" type="curve" smooth="yes"/>
      <point x="233" y="645"/>
      <point x="101" y="507"/>
      <point x="101" y="338" type="curve" smooth="yes"/>
      <point x="101" y="170"/>
      <point x="233" y="32"/>
      <point x="395" y="32" type="curve" smooth="yes"/>
      <point x="555" y="32"/>
      <point x="689" y="169"/>
      <point x="689" y="335" type="curve" smooth="yes"/>
      <point x="689" y="508"/>
      <point x="559" y="645"/>
    </contour>
  </outline>
</glyph>
<glyph name="trademarksans" format="1">
  <advance width="786"/>
  <outline>
    <contour>
      <point x="537" y="277" type="line"/>
      <point x="504" y="277" type="line"/>
      <point x="375" y="623" type="line"/>
      <point x="375" y="277" type="line"/>
      <point x="320" y="277" type="line"/>
      <point x="320" y="673" type="line"/>
      <point x="410" y="673" type="line"/>
      <point x="520" y="382" type="line"/>
      <point x="636" y="673" type="line"/>
      <point x="725" y="673" type="line"/>
      <point x="725" y="277" type="line"/>
      <point x="670" y="277" type="line"/>
      <point x="670" y="623" type="line"/>
    </contour>
    <contour>
      <point x="180" y="623" type="line"/>
      <point x="180" y="277" type="line"/>
      <point x="117" y="277" type="line"/>
      <point x="117" y="623" type="line"/>
      <point x="5" y="623" type="line"/>
      <point x="5" y="673" type="line"/>
      <point x="290" y="673" type="line"/>
      <point x="290" y="623" type="line"/>
    </contour>
  </outline>
</glyph>
<glyph name="trademarkserif" format="1">
  <advance width="890"/>
  <outline>
    <contour>
      <point x="855" y="673" type="line"/>
      <point x="855" y="651" type="line"/>
      <point x="839" y="651" type="line" smooth="yes"/>
      <point x="812" y="651"/>
      <point x="806" y="648"/>
      <point x="806" y="634" type="curve" smooth="yes"/>
      <point x="806" y="325" type="line" smooth="yes"/>
      <point x="806" y="299"/>
      <point x="813" y="294"/>
      <point x="855" y="291" type="curve"/>
      <point x="855" y="269" type="line"/>
      <point x="685" y="269" type="line"/>
      <point x="685" y="291" type="line"/>
      <point x="726" y="292"/>
      <point x="737" y="299"/>
      <point x="737" y="325" type="curve" smooth="yes"/>
      <point x="737" y="615" type="line"/>
      <point x="598" y="269" type="line"/>
      <point x="576" y="269" type="line"/>
      <point x="444" y="599" type="line"/>
      <point x="444" y="330" type="line" smooth="yes"/>
      <point x="444" y="299"/>
      <point x="453" y="292"/>
      <point x="491" y="291" type="curve"/>
      <point x="491" y="269" type="line"/>
      <point x="356" y="269" type="line"/>
      <point x="356" y="291" type="line"/>
      <point x="400" y="292"/>
      <point x="405" y="296"/>
      <point x="405" y="331" type="curve" smooth="yes"/>
      <point x="405" y="634" type="line" smooth="yes"/>
      <point x="405" y="651"/>
      <point x="405" y="651"/>
      <point x="364" y="651" type="curve"/>
      <point x="364" y="673" type="line"/>
      <point x="484" y="673" type="line"/>
      <point x="603" y="382" type="line"/>
      <point x="721" y="673" type="line"/>
    </contour>
    <contour>
      <point x="343" y="673" type="line"/>
      <point x="343" y="563" type="line"/>
      <point x="320" y="563" type="line"/>
      <point x="318" y="626"/>
      <point x="302" y="637"/>
      <point x="216" y="637" type="curve" smooth="yes"/>
      <point x="214" y="637" type="line"/>
      <point x="214" y="321" type="line"/>
      <point x="213" y="294"/>
      <point x="219" y="291"/>
      <point x="275" y="291" type="curve"/>
      <point x="275" y="269" type="line"/>
      <point x="82" y="269" type="line"/>
      <point x="82" y="291" type="line"/>
      <point x="137" y="291"/>
      <point x="145" y="295"/>
      <point x="145" y="323" type="curve" smooth="yes"/>
      <point x="145" y="637" type="line"/>
      <point x="139" y="637" type="line"/>
      <point x="57" y="634"/>
      <point x="43" y="624"/>
      <point x="38" y="563" type="curve"/>
      <point x="18" y="563" type="line"/>
      <point x="18" y="673" type="line"/>
    </contour>
  </outline>
</glyph>
